<svg width="641" height="413" viewBox="0 0 641 413" fill="none" xmlns="http://www.w3.org/2000/svg">
<path d="M105.283 245.975H158.118C182.24 246.101 203.022 259.773 200.201 286.241C199.144 296.148 193.53 303.783 184.578 307.955C196.267 312.274 204.8 321.123 206.263 333.869C209.336 360.695 190.164 375.397 165.111 375.783H105.276V245.968L105.283 245.975ZM126.976 301.301H158.587C169.836 300.663 179.23 295.419 179.23 282.974C179.23 269.028 167.764 265.565 156.018 265.102C146.428 264.73 136.587 265.403 126.969 265.109V301.294L126.976 301.301ZM126.976 356.635H163.487C172.965 356.165 182.485 353.256 184.746 342.907C187.805 328.856 178.656 319.931 165.125 319.279H126.983V356.642L126.976 356.635Z" fill="#E8393D"/>
<path d="M491.29 410.454C466.322 417.914 432.338 401.732 432.338 401.732C430.182 400.477 427.599 399.671 425.513 398.058C422.391 395.646 418.814 390.914 418.135 386.987C418.373 386.51 421.229 385.95 421.985 385.697C425.107 384.652 427.62 384.106 430.77 383.285C433.92 382.465 436.776 381.539 439.835 380.894L440.136 380.971C444.566 386.517 451.699 390.17 458.454 392.169C468.674 395.183 491.591 397.294 487.693 380.179C486.692 375.776 483.283 367.944 480.973 364.025C480.805 363.738 480.672 363.506 480.413 363.878C480.063 364.383 479.643 366.107 479.223 366.893C471.824 380.754 447.996 374.416 436.412 370.111C419.605 363.878 413.263 355.653 410.638 337.782C407.642 317.421 410.029 295.503 428.873 283.801C444.461 274.118 464.775 277 477.158 290.336C477.536 290.02 477.641 289.494 477.718 289.032C477.9 287.917 478.299 280.884 478.726 280.583L497.8 280.534L496.862 296.288C496.043 307.464 490.898 316.951 490.324 328.26C489.47 345.15 497.142 361.494 504.905 376.021C506.2 378.44 509.07 382.142 509.637 384.589C513.963 403.176 491.29 410.461 491.29 410.461V410.454ZM466.406 350.43C473.644 345.48 471.943 335.692 472.363 328.029C472.937 317.645 476.864 306.062 465.615 299.787C451.363 291.836 432.618 300.986 431.547 317.757C430.63 332.179 431.89 345.256 447.121 350.746C452.742 352.772 461.296 353.922 466.399 350.43H466.406Z" fill="#E8393D"/>
<path d="M396.253 405.111C393.096 406.422 389.708 407.074 386.3 407.25C373.917 407.867 361.744 407.453 349.417 405.364C337.091 403.274 324.981 400.806 316.7 391.187C315.993 390.366 312.164 385.073 312.626 384.421L334.417 376C337.63 383.664 345.231 385.767 352.679 387.148C358.083 388.151 371.285 390.058 375.646 386.279C378.936 383.432 374.26 378.3 373.322 375.355C371.649 370.09 375.772 364.305 377.221 359.425C370.333 364.558 363.291 369.199 354.485 369.928C331.092 371.87 311.324 355.169 310.05 331.541C309.252 316.775 309.966 303.86 319.626 292.081C334.732 273.669 361.87 273.676 377.921 290.791L378.859 280.519H398.913C398.878 293.476 398.962 306.44 398.927 319.404C398.899 330.84 399.795 343.39 397.443 354.573C396.141 360.764 394.265 364.487 394.741 371.197C395.483 381.728 407.887 383.348 406.046 394.699C405.15 400.224 400.46 403.372 396.267 405.111H396.253ZM351.755 297.171C341.165 298.111 332.597 306.342 331.75 317.063C330.7 330.349 331.617 344.617 346.085 349.63C356.767 353.332 371.943 350.885 375.898 338.84C377.739 333.224 377.942 318.549 376.409 312.975C373.315 301.701 363.053 296.169 351.755 297.171Z" fill="#E8393D"/>
<path d="M236.124 280.527V339.471C236.362 354.497 249.536 361.543 263.179 357.448C269.745 355.478 277.172 348.095 277.172 340.874V280.527H298.626V375.776H278.572L277.872 365.035C272.692 371.611 265.475 376.148 257.159 377.571C233.857 381.553 216.091 364.467 214.67 341.806V280.527H236.124Z" fill="#E8393D"/>
<path d="M615.349 346.7C615.181 352.274 611.604 359.629 607.537 363.408C600.362 370.076 590.331 372.782 580.713 372.039C557.229 370.216 536.11 359.755 537.671 332.929C538.224 323.457 543.061 316.6 547.989 308.937C551.93 302.802 556.669 295.299 561.142 289.655C568.828 279.959 582.05 276.663 593.943 279.194C610.925 282.805 617.218 304.772 618.142 319.867C618.261 321.809 617.211 331.436 615.755 332.509C615.755 332.509 600.271 334.724 587.146 334.17C576.604 333.722 565.321 336.085 565.321 336.085C564.957 338.118 565.559 340.502 566.217 342.437C570.473 354.896 588.777 360.028 599.886 353.872C599.886 353.872 605.262 350.885 608.622 342.226L615.405 345.213L615.363 346.693L615.349 346.7ZM607.502 319.222C609.28 318.886 608.461 314.321 608.125 313.08C604.632 300.334 593.026 293.652 580.363 298.623C573.21 301.434 567.33 309.042 565.671 316.481C565.671 316.481 591.731 316.782 607.509 319.229L607.502 319.222Z" fill="#E8393D"/>
<path d="M535.55 377.844L515.299 377.865C515.208 376.028 514.41 374.388 513.829 372.684C512.912 369.999 512.072 367.166 511.099 364.446C508.432 356.972 503.708 350.135 502.301 342.206C499.088 324.151 512.016 312.484 515.369 295.889C517.35 286.066 514.172 271.51 512.198 261.561C511.197 256.541 509.398 251.598 509.23 246.438L530.699 246.774C531.854 250.693 532.855 254.669 534.066 258.574C538.665 273.41 542.046 285.084 537.797 300.832C533.611 316.341 518.365 328.218 525.673 345.185C530.118 355.506 540.583 365.876 535.55 377.844Z" fill="#E8393D"/>
<path d="M421.753 82.0913H400.761V208.338H421.753V82.0913Z" fill="#E8393D"/>
<path d="M385.599 115.697V199.132C384.577 215.7 375.071 228.664 359.364 234.013C342.662 239.7 314.809 236.846 304.016 221.246C303.624 220.678 301.363 217.06 301.643 216.738L322.95 208.78C328.039 220.482 347.583 221.996 356.662 214.732C363.164 209.523 364.585 201.698 364.851 193.761C364.879 193.039 364.956 191.693 364.725 191.062C364.494 190.431 364.431 190.999 364.312 191.118C341.423 215.433 301.398 198.809 299.305 166.438C298.346 151.651 299.102 137.734 309.21 126.186C324.259 108.994 350.012 109.366 365.299 125.954L365.999 116.272L366.349 115.69H385.592L385.599 115.697ZM339.841 131.865C321.949 133.45 318.484 149.926 320.297 165.05C323.412 190.929 361.554 190.859 364.578 165.022C365.159 160.065 365.117 151.974 363.794 147.199C360.75 136.268 350.824 130.89 339.841 131.865Z" fill="#E8393D"/>
<path d="M220.963 208.478C222.636 213.624 227.599 216.709 232.555 218.077C239.954 220.117 251.475 220.04 258.097 215.763C266.35 210.441 267.932 200.212 267.589 191.069C264.754 194.021 259.35 197.176 259.35 197.176C248.654 203.072 222.678 207.069 214.824 195.206C209.763 187.556 214.782 182.038 214.145 174.648C213.823 170.904 212.01 164.643 210.743 161.018C208.335 154.154 204.009 148.846 204.646 141.043C205.766 127.279 226.339 114.505 239.009 113.586C247.779 112.948 257.236 116.517 263.963 122L267.932 125.73L268.982 115.697H288.574V196.096C287.335 227.85 263.34 239.622 234.144 236.075C221.677 234.56 206.865 229.814 204.639 215.595L220.956 208.471L220.963 208.478ZM227.473 173.926C227.445 176.899 226.108 180.257 228.971 182.347C233.801 185.866 248.976 184.941 254.457 182.718C267.043 177.621 268.254 165.4 267.603 153.376C266.735 137.411 253.197 128.338 237.924 132.797C237.924 132.797 221.586 137.684 225.723 155.977C225.723 155.977 227.55 165.933 227.473 173.926Z" fill="#E8393D"/>
<path d="M519.703 169.839H455.101C455.983 179.458 461.142 188.629 470.963 191.188C481.966 194.056 495.427 189.653 499.312 178.224L518.303 184.072C514.432 196.867 503.792 205.674 491.066 208.969C468.478 214.816 443.964 205.849 436.845 182.375C433.471 171.255 433.555 150.649 437.433 139.669C449.382 105.839 500.887 104.219 515.545 136.766C520.263 147.248 519.766 158.557 519.703 169.825V169.839ZM498.948 152.331C498.78 141.667 490.114 132.714 479.481 132.019C466.077 131.143 456.907 139.136 455.332 152.331H498.948Z" fill="#E8393D"/>
<path d="M151.342 121.86C155.605 125.015 159.168 128.205 163.879 130.904C176.703 138.238 188.064 138.785 197.303 151.833C206.774 165.211 209.623 177.712 197.975 191.069C182.569 208.745 144.307 217.27 124.218 203.717C107.166 192.212 109.014 175.385 110.155 157.337C110.925 145.166 111.191 133.583 117.421 122.652C126.234 107.178 140.003 113.453 151.342 121.853V121.86ZM170.935 148.461C166.035 144.205 156.816 138.617 150.95 135.672C130.497 125.394 131.001 144.57 130.217 158.978C129.804 166.578 128.607 173.744 131.736 181.029C137.378 194.168 152.924 192.492 164.271 189.085C172.902 186.498 187.476 179.816 183.738 168.436C181.827 162.631 175.541 152.464 170.935 148.461Z" fill="#E8393D"/>
<path d="M0.180664 82.2598H53.0155C77.137 82.379 97.9195 95.6585 95.0986 121.376C94.0416 131.003 88.4277 138.414 79.4749 142.466C91.1647 146.659 99.6975 155.255 101.16 167.637C104.233 193.691 85.0608 207.973 60.0084 208.345H0.180664V82.2598ZM21.8732 136.002H53.4845C64.7333 135.385 74.1271 130.288 74.1271 118.2C74.1271 104.654 62.6613 101.289 50.9156 100.847C41.3258 100.482 31.484 101.134 21.8662 100.854V136.002H21.8732ZM21.8732 189.744H58.3844C67.8622 189.288 77.382 186.463 79.6429 176.408C82.7019 162.757 73.5531 154.091 60.0224 153.453H21.8802V189.744H21.8732Z" fill="#E8393D"/>
<path d="M623.968 13.2036L623.968 3.74754L632.036 3.74754L632.036 13.2036L640.778 13.2036L640.778 20.6177L632.036 20.6177L632.036 38.9458C632.036 40.3887 632.329 41.3408 632.855 41.8716C633.391 42.3713 634.236 42.643 635.437 42.643C636.25 42.643 637.024 42.5661 637.757 42.4126C638.133 42.3137 638.612 42.2191 639.07 42.1089C639.542 41.9956 640.022 41.8598 640.46 41.6694L640.778 41.5307L640.778 48.2846L640.679 48.352C639.948 48.8478 639.703 48.9759 639.174 49.2583C638.72 49.5003 638.23 49.6863 637.712 49.772C636.564 49.9619 635.428 50.0571 634.306 50.0571C631.094 50.057 628.555 49.2128 626.717 47.4975C624.874 45.7773 623.968 43.2908 623.968 40.0757L623.968 20.6177L618.08 20.6177L618.08 13.2036L623.968 13.2036ZM590.62 14.0005L590.637 14.2104L590.934 18.0434C592.049 16.541 593.467 15.3593 595.185 14.5005C597.003 13.5714 599.021 13.1089 601.233 13.1089C603.769 13.1089 606.07 13.733 608.129 14.9839L608.511 15.2173C610.394 16.4181 611.9 18.0979 613.032 20.2485C614.242 22.5465 614.843 25.2208 614.843 28.2641L614.843 49.9624L606.715 49.9624L606.715 28.6216C606.715 25.801 606.01 23.7716 604.646 22.4829L604.644 22.48C603.308 21.183 601.468 20.523 599.093 20.5229C597.619 20.5229 596.287 20.8324 595.093 21.4487C593.901 22.0642 592.939 22.9482 592.207 24.104C591.52 25.252 591.172 26.5968 591.172 28.145L591.172 49.9624L583.045 49.9624L583.045 14.0005L590.62 14.0005ZM567.013 5.36668C567.013 2.94559 568.975 0.983128 571.396 0.982893C573.818 0.982893 575.781 2.94544 575.781 5.36668C575.781 7.7879 573.818 9.75145 571.396 9.75145C568.975 9.75121 567.013 7.78776 567.013 5.36668ZM575.545 13.9975L575.545 49.9585L567.418 49.9585L567.418 13.9975L575.545 13.9975ZM528.614 28.8921C528.614 25.3708 529.354 22.3545 530.847 19.854L530.849 19.852C532.377 17.3589 534.41 15.4847 536.947 14.2358C539.518 12.9504 542.329 12.3091 545.375 12.3091C548.42 12.3091 551.21 12.95 553.741 14.2348L554.219 14.4761C556.574 15.7198 558.469 17.5134 559.902 19.852C561.435 22.353 562.196 25.3698 562.196 28.8921L562.196 33.352C562.196 36.8744 561.435 39.9109 559.903 42.4507L559.902 42.4516C558.374 44.9456 556.32 46.8393 553.744 48.1274L553.743 48.1264C551.211 49.412 548.421 50.0542 545.375 50.0542C542.329 50.0541 539.518 49.4129 536.947 48.1274L536.946 48.1264C534.41 46.838 532.377 44.9447 530.849 42.4516L530.846 42.4487C529.354 39.9093 528.614 36.8734 528.614 33.352L528.614 28.8921ZM536.741 33.1743C536.741 35.2464 537.132 36.9907 537.902 38.4165L538.051 38.6733C538.806 39.9381 539.797 40.9106 541.021 41.5962C542.334 42.2913 543.784 42.64 545.375 42.6401C546.966 42.6401 548.416 42.2913 549.729 41.5962C551.035 40.8657 552.074 39.7893 552.848 38.3589L552.85 38.355C553.659 36.9291 554.068 35.2052 554.068 33.1743L554.068 29.1294C554.068 27.0985 553.659 25.3745 552.85 23.9487L552.848 23.9448C552.074 22.5136 551.034 21.4578 549.729 20.7671C548.416 20.0719 546.966 19.7231 545.375 19.7231C543.784 19.7232 542.334 20.072 541.021 20.7671C539.717 21.4578 538.677 22.5136 537.903 23.9448C537.132 25.3715 536.741 27.0968 536.741 29.1294L536.741 33.1743ZM508.577 0.982896C514.051 0.982931 518.405 2.27844 521.614 4.895L521.615 4.895C524.878 7.48203 526.498 11.2389 526.498 16.1274C526.498 21.0538 524.9 24.849 521.68 27.4761L521.679 27.478C518.469 30.0559 514.093 31.3315 508.577 31.3315L496.531 31.3315L496.531 49.9331L488.039 49.9331L488.039 0.982897L508.577 0.982896ZM508.141 24.1011C511.436 24.1011 513.889 23.412 515.535 22.0718C517.173 20.7382 518.006 18.7699 518.006 16.1274C518.006 13.4846 517.173 11.5372 515.538 10.2436L515.535 10.2417C513.889 8.90151 511.436 8.21336 508.141 8.21336L496.531 8.21336L496.531 24.1011L508.141 24.1011ZM442.827 28.6382C442.827 25.5359 443.524 22.8007 444.924 20.4409C446.318 18.0515 448.114 16.2128 450.313 14.9331L450.315 14.9321C452.55 13.6555 454.889 13.0152 457.329 13.0151C459.963 13.0151 462.401 13.6537 464.639 14.9321C466.029 15.7125 467.245 16.7017 468.292 17.897L468.604 14.1089L468.622 13.8999L476.138 13.8999L476.138 44.5054C476.138 47.9985 475.384 50.9543 473.861 53.3579L473.86 53.3569C472.382 55.7535 470.362 57.5341 467.805 58.6929C465.294 59.8874 462.489 60.4829 459.394 60.4829C455.789 60.4828 452.591 59.8683 449.805 58.6343C447.049 57.3962 445.059 55.5516 443.854 53.1001L443.743 52.8774L451.762 49.7788L451.96 49.7026L452.05 49.895C452.581 51.0276 453.427 51.9135 454.598 52.5532L454.836 52.6782L454.838 52.6792C456.178 53.3685 457.695 53.7153 459.394 53.7153C462.177 53.7153 464.292 52.8863 465.772 51.2544L465.776 51.2495C467.2 49.7543 467.973 47.5927 468.064 44.7329L468.073 44.1518L468.073 42.7681C467.076 43.8421 465.932 44.7446 464.638 45.4712L464.637 45.4702C462.4 46.748 459.962 47.3882 457.329 47.3882C454.887 47.3881 452.548 46.7261 450.313 45.4097C448.115 44.1303 446.318 42.312 444.924 39.9614C443.524 37.6022 442.827 34.8871 442.827 31.8237L442.827 28.6382ZM450.892 31.5288C450.892 33.3829 451.278 34.9738 452.04 36.3091L452.187 36.5493C452.935 37.7333 453.918 38.6459 455.136 39.2905C456.437 39.9793 457.894 40.3256 459.512 40.3257C461.13 40.3257 462.567 39.979 463.827 39.2915L463.829 39.2905C465.128 38.603 466.159 37.6105 466.925 36.3091C467.64 35.0573 468.023 33.5808 468.068 31.8735L468.073 31.5288L468.073 28.8149C468.073 26.9997 467.687 25.4486 466.925 24.1528L466.924 24.1499C466.158 22.8093 465.126 21.7984 463.829 21.1118L463.827 21.1108C462.567 20.4233 461.13 20.0766 459.512 20.0766C457.894 20.0767 456.437 20.4231 455.136 21.1118C453.839 21.7984 452.807 22.8092 452.041 24.1499L452.04 24.1528C451.278 25.4485 450.892 26.9998 450.892 28.8149L450.892 31.5288ZM413.635 13.8999L413.651 14.1099L413.945 17.9067C415.051 16.418 416.457 15.2472 418.159 14.396C419.963 13.4743 421.965 13.0151 424.16 13.0151C426.676 13.0152 428.958 13.6337 431 14.8745L431.378 15.1069C433.246 16.2981 434.74 17.9639 435.863 20.0972C437.063 22.3767 437.659 25.0295 437.659 28.0483L437.659 49.5698L429.595 49.5698L429.595 28.4018C429.595 25.6049 428.895 23.5925 427.543 22.3149L427.54 22.313C426.216 21.027 424.391 20.3716 422.036 20.3716C420.575 20.3716 419.254 20.6795 418.07 21.2905C416.888 21.9008 415.935 22.7773 415.209 23.9233C414.527 25.0616 414.183 26.3949 414.183 27.9302L414.183 49.5698L406.118 49.5698L406.118 13.8999L413.635 13.8999ZM391.98 5.33349C391.98 2.93084 393.928 0.982901 396.331 0.982901C398.734 0.983116 400.681 2.93098 400.681 5.33349C400.68 7.73559 398.733 9.68288 396.331 9.6831C393.929 9.6831 391.981 7.73572 391.98 5.33349ZM400.555 13.8911L400.555 49.561L392.49 49.561L392.49 13.8911L400.555 13.8911ZM386.107 0.986807L386.107 49.5757L378.043 49.5757L378.043 0.986808L386.107 0.986807ZM363.122 5.33349C363.122 2.93085 365.07 0.982902 367.473 0.982902C369.875 0.983117 371.822 2.93098 371.822 5.33349C371.822 7.73559 369.875 9.68288 367.473 9.6831C365.07 9.6831 363.123 7.73572 363.122 5.33349ZM371.695 13.8911L371.695 49.561L363.631 49.561L363.631 13.8911L371.695 13.8911ZM324.493 29.4634C324.493 25.9709 325.228 22.9788 326.708 20.4985L326.709 20.4956C328.225 18.023 330.242 16.1649 332.759 14.9263C335.309 13.6511 338.097 13.0151 341.119 13.0151C344.139 13.0151 346.906 13.6509 349.417 14.9253C351.974 16.1638 354.013 18.0224 355.529 20.4966C357.05 22.9773 357.804 25.9708 357.804 29.4643L357.804 33.8882C357.804 37.3815 357.05 40.3925 355.53 42.9116L355.529 42.9126C354.013 45.3863 351.975 47.2647 349.42 48.5425L349.419 48.5415C346.908 49.8167 344.14 50.4536 341.119 50.4536C338.097 50.4536 335.309 49.8176 332.759 48.5425L332.758 48.5415C330.242 47.2635 328.225 45.3854 326.709 42.9126L326.707 42.9097C325.228 40.3908 324.493 37.3798 324.493 33.8872L324.493 29.4634ZM332.558 33.7104C332.558 35.7652 332.945 37.495 333.709 38.9087L333.855 39.1636C334.606 40.4191 335.589 41.384 336.806 42.064C338.107 42.7519 339.543 43.0972 341.119 43.0972C342.695 43.0971 344.131 42.7516 345.432 42.064C346.728 41.3396 347.761 40.272 348.528 38.852L348.53 38.8472C349.332 37.4335 349.739 35.7242 349.739 33.7104L349.739 29.6997C349.739 27.686 349.332 25.9767 348.53 24.563L348.528 24.5581C347.761 23.1389 346.73 22.0915 345.437 21.4067C344.135 20.7175 342.697 20.3716 341.119 20.3716C339.542 20.3716 338.104 20.7175 336.802 21.4067C335.508 22.0915 334.477 23.1382 333.71 24.5571C332.945 25.9717 332.558 27.6832 332.558 29.6987L332.558 33.7104ZM302.308 0.986811C307.491 0.986817 311.56 2.15337 314.484 4.51708L314.483 4.51708C317.457 6.88811 318.934 10.3016 318.934 14.7222C318.934 16.8839 318.413 18.8144 317.366 20.5054L317.364 20.5073C316.395 22.035 314.917 23.259 312.946 24.1909C315.658 25.1816 317.704 26.6179 319.065 28.5083C320.514 30.4794 321.234 32.8489 321.234 35.604C321.234 40.1008 319.778 43.5727 316.845 45.9839C313.92 48.3879 309.831 49.5756 304.608 49.5757L283.322 49.5757L283.322 0.986812L302.308 0.986811ZM304.549 42.395C307.431 42.395 309.595 41.7905 311.073 40.6157C312.543 39.4083 313.287 37.6895 313.287 35.4263C313.287 33.2024 312.543 31.5017 311.07 30.2935L311.067 30.2915C309.59 29.0414 307.429 28.3989 304.549 28.3989L291.387 28.3989L291.387 42.395L304.549 42.395ZM302.249 21.6909C305.13 21.6909 307.292 21.0869 308.77 19.9136C310.243 18.7044 310.987 17.0235 310.987 14.8403C310.987 12.6158 310.243 10.98 308.778 9.89111L308.775 9.88915C307.297 8.75211 305.133 8.16656 302.249 8.1665L291.387 8.1665L291.387 21.6909L302.249 21.6909ZM267.365 45.9683C267.478 44.854 268.419 43.9849 269.563 43.9849C269.755 43.9849 269.939 44.0115 270.116 44.0571C270.146 44.0647 270.175 44.0708 270.204 44.0796C270.247 44.0926 270.288 44.109 270.33 44.1245C270.351 44.1323 270.373 44.1385 270.394 44.147C270.428 44.1611 270.462 44.178 270.496 44.1938C270.531 44.21 270.565 44.2258 270.599 44.2436C270.62 44.2549 270.64 44.2669 270.661 44.2788C270.697 44.2995 270.733 44.3206 270.768 44.3433C270.799 44.364 270.83 44.3864 270.86 44.4087C270.883 44.4254 270.906 44.4419 270.929 44.4595C270.961 44.4848 270.992 44.5115 271.022 44.5386C271.043 44.5569 271.064 44.5752 271.084 44.5942C271.111 44.62 271.137 44.6463 271.163 44.6733C271.187 44.6986 271.211 44.7241 271.233 44.7505C271.255 44.7753 271.275 44.8008 271.296 44.8267C271.318 44.8551 271.34 44.884 271.361 44.9136C271.379 44.9389 271.397 44.9646 271.414 44.9907C271.435 45.023 271.455 45.0559 271.475 45.0894C271.49 45.1158 271.505 45.1423 271.52 45.1694C271.539 45.2063 271.557 45.2437 271.574 45.2817C271.586 45.3067 271.597 45.3315 271.607 45.3569C271.622 45.3931 271.635 45.4302 271.647 45.4673C271.658 45.4981 271.67 45.5286 271.68 45.5601C271.689 45.5912 271.696 45.623 271.704 45.6548C271.714 45.6923 271.723 45.7298 271.73 45.7681C271.757 45.9038 271.772 46.0436 271.772 46.187C271.772 46.1893 271.773 46.1916 271.773 46.1938C271.773 46.2702 271.769 46.346 271.762 46.4204C271.754 46.4928 271.743 46.5641 271.729 46.6343C271.724 46.6563 271.718 46.6779 271.713 46.6997C271.702 46.7458 271.69 46.7914 271.677 46.8364C271.668 46.8658 271.658 46.8945 271.647 46.9233C271.634 46.9625 271.62 47.0015 271.604 47.0395C271.592 47.0694 271.578 47.0983 271.564 47.1274C271.55 47.1576 271.537 47.1879 271.521 47.2173C271.505 47.2482 271.487 47.2781 271.47 47.3081C271.45 47.3425 271.429 47.3765 271.407 47.4097C271.395 47.4286 271.381 47.4468 271.368 47.4653C271.342 47.5017 271.317 47.538 271.289 47.5727C271.271 47.5948 271.253 47.6159 271.234 47.6372C271.208 47.6683 271.18 47.6985 271.151 47.728C271.129 47.7507 271.107 47.7727 271.084 47.7944C271.056 47.8208 271.028 47.8467 270.999 47.8716C270.981 47.8871 270.963 47.9026 270.944 47.9175C270.909 47.946 270.872 47.9732 270.835 47.9995C270.813 48.0153 270.791 48.0314 270.768 48.0464C270.733 48.069 270.697 48.0901 270.661 48.1108C270.639 48.1236 270.616 48.1359 270.594 48.1479C270.554 48.1689 270.514 48.188 270.473 48.2065C270.449 48.2172 270.426 48.229 270.402 48.2388C270.355 48.2581 270.307 48.2744 270.259 48.2905C270.243 48.2958 270.227 48.3022 270.211 48.3071C270.156 48.3239 270.1 48.3376 270.044 48.3501C270.03 48.3533 270.015 48.3579 270.001 48.3608C269.86 48.3893 269.713 48.4048 269.563 48.4048L269.337 48.3931C269.265 48.3857 269.193 48.374 269.123 48.3599C269.112 48.3575 269.1 48.3545 269.089 48.352C269.034 48.34 268.98 48.3261 268.927 48.3101C268.904 48.3033 268.882 48.296 268.86 48.2886C268.818 48.2743 268.776 48.2585 268.734 48.2417C268.71 48.232 268.687 48.2219 268.663 48.2114C268.627 48.1952 268.591 48.1778 268.556 48.1597C268.527 48.1448 268.498 48.1299 268.47 48.1138C268.44 48.0969 268.411 48.0792 268.383 48.061C268.358 48.0453 268.333 48.0299 268.309 48.0132C268.271 47.9875 268.236 47.96 268.2 47.9321C268.182 47.9181 268.164 47.9047 268.146 47.8901C268.046 47.8058 267.953 47.7126 267.868 47.6118C267.849 47.5887 267.831 47.5644 267.812 47.5405C267.791 47.5129 267.77 47.4852 267.75 47.4565C267.73 47.4272 267.71 47.397 267.691 47.3667C267.675 47.3406 267.659 47.3144 267.644 47.2876C267.627 47.2594 267.613 47.2306 267.598 47.2017C267.58 47.1663 267.562 47.1306 267.546 47.0942C267.535 47.0707 267.525 47.0469 267.516 47.0229C267.499 46.9815 267.483 46.9396 267.469 46.897C267.461 46.8749 267.454 46.8529 267.447 46.8306C267.435 46.7889 267.425 46.7463 267.415 46.7036C267.409 46.6763 267.401 46.6493 267.396 46.6216C267.383 46.5555 267.372 46.4884 267.365 46.4204L267.354 46.1938L267.365 45.9683ZM267.365 32.7104C267.478 31.5961 268.419 30.727 269.563 30.727C269.755 30.7271 269.939 30.7537 270.116 30.7993C270.146 30.8069 270.175 30.813 270.204 30.8218C270.247 30.8347 270.288 30.8512 270.33 30.8667C270.351 30.8745 270.373 30.8807 270.394 30.8892C270.428 30.9033 270.462 30.9201 270.496 30.936C270.531 30.9522 270.565 30.968 270.599 30.9858C270.621 30.9975 270.642 31.0106 270.663 31.0229C270.699 31.0435 270.734 31.064 270.769 31.0864C270.8 31.1069 270.83 31.1289 270.86 31.1509C270.883 31.1676 270.906 31.1841 270.929 31.2017C270.961 31.227 270.992 31.2537 271.022 31.2808C271.043 31.2991 271.064 31.3174 271.084 31.3364C271.111 31.3621 271.137 31.3885 271.163 31.4155C271.187 31.4408 271.211 31.4663 271.233 31.4927C271.255 31.5175 271.275 31.543 271.296 31.5688C271.318 31.5973 271.34 31.6262 271.361 31.6558C271.379 31.6811 271.397 31.7068 271.414 31.7329C271.435 31.7652 271.455 31.7981 271.475 31.8315C271.49 31.858 271.505 31.8845 271.52 31.9116C271.539 31.9484 271.557 31.9859 271.574 32.0239C271.586 32.0488 271.597 32.0737 271.607 32.0991C271.622 32.1353 271.635 32.1724 271.647 32.2095C271.658 32.2403 271.67 32.2708 271.68 32.3022C271.689 32.3334 271.696 32.3652 271.704 32.397C271.714 32.4345 271.723 32.472 271.73 32.5102C271.757 32.646 271.772 32.7858 271.772 32.9292C271.772 32.9315 271.773 32.9338 271.773 32.936C271.773 33.0124 271.769 33.0882 271.762 33.1626C271.754 33.235 271.743 33.3063 271.729 33.3765C271.724 33.3985 271.718 33.4201 271.713 33.4419C271.702 33.488 271.69 33.5336 271.677 33.5786C271.669 33.6053 271.659 33.6315 271.65 33.6577C271.636 33.6995 271.621 33.7411 271.604 33.7817C271.592 33.8115 271.578 33.8405 271.564 33.8696C271.55 33.8998 271.537 33.9301 271.521 33.9595C271.505 33.9904 271.487 34.0202 271.47 34.0503C271.45 34.0847 271.429 34.1187 271.407 34.1519C271.395 34.1708 271.381 34.189 271.368 34.2075C271.342 34.2439 271.317 34.2802 271.289 34.3149C271.271 34.337 271.253 34.3581 271.234 34.3794C271.208 34.4105 271.18 34.4407 271.151 34.4702C271.131 34.4911 271.111 34.5117 271.09 34.5317C271.06 34.56 271.03 34.5872 270.999 34.6138C270.981 34.6293 270.963 34.6448 270.944 34.6597C270.909 34.6882 270.872 34.7154 270.835 34.7417C270.813 34.7575 270.791 34.7736 270.768 34.7886C270.733 34.8112 270.697 34.8323 270.661 34.853C270.639 34.8658 270.616 34.8781 270.594 34.8901C270.554 34.9111 270.514 34.9302 270.473 34.9487C270.449 34.9593 270.426 34.9711 270.402 34.981C270.355 35.0002 270.307 35.0166 270.259 35.0327C270.243 35.038 270.227 35.0444 270.211 35.0493C270.156 35.0661 270.1 35.0797 270.044 35.0923C270.03 35.0955 270.015 35.1001 270.001 35.103C269.86 35.1314 269.713 35.147 269.563 35.147L269.337 35.1352C269.265 35.1279 269.193 35.1162 269.123 35.102C269.112 35.0997 269.1 35.0967 269.089 35.0942C269.034 35.0822 268.98 35.0682 268.927 35.0522C268.904 35.0455 268.882 35.0381 268.86 35.0308C268.818 35.0164 268.776 35.0007 268.734 34.9839C268.71 34.9742 268.687 34.9641 268.663 34.9536C268.627 34.9373 268.591 34.92 268.556 34.9019C268.527 34.887 268.498 34.872 268.47 34.856C268.44 34.8391 268.411 34.8214 268.383 34.8032C268.358 34.7874 268.333 34.7721 268.309 34.7554C268.271 34.7297 268.236 34.7022 268.2 34.6743C268.182 34.6603 268.164 34.6469 268.146 34.6323C268.046 34.548 267.953 34.4548 267.868 34.354C267.849 34.3309 267.831 34.3066 267.812 34.2827C267.791 34.2551 267.77 34.2274 267.75 34.1987C267.73 34.1694 267.71 34.1392 267.691 34.1089C267.675 34.0828 267.659 34.0566 267.644 34.0298C267.627 34.0016 267.613 33.9728 267.598 33.9438C267.58 33.9085 267.562 33.8728 267.546 33.8364C267.535 33.8129 267.525 33.7891 267.516 33.7651C267.499 33.7237 267.483 33.6818 267.469 33.6392C267.461 33.6171 267.454 33.5951 267.447 33.5727C267.435 33.5311 267.425 33.4885 267.415 33.4458C267.409 33.4185 267.401 33.3914 267.396 33.3638C267.383 33.2977 267.372 33.2306 267.365 33.1626C267.358 33.0882 267.354 33.0124 267.354 32.936L267.365 32.7104ZM177.663 45.7466C177.663 44.658 178.043 43.8217 178.847 43.3159C179.58 42.8318 180.331 42.5786 181.095 42.5786C181.544 42.5787 181.971 42.7292 182.371 43.0093C182.854 43.3302 183.078 43.8392 183.078 44.4683C183.078 45.004 182.841 45.4809 182.414 45.8931C182 46.2918 181.498 46.4956 180.926 46.4956C180.618 46.4956 180.311 46.4718 180.004 46.4233L180 46.4224C179.87 46.4002 179.746 46.3639 179.625 46.3188C179.707 47.0889 180.116 47.7456 180.891 48.2964L181.063 48.4058C181.947 48.9354 183.139 49.2134 184.664 49.2134C186.109 49.2134 187.486 48.9547 188.797 48.439C190.096 47.9278 191.535 46.952 193.114 45.4917C194.714 44.0094 196.635 41.8573 198.875 39.0298C201.115 36.2025 203.873 32.4755 207.148 27.8481C210.749 22.6758 214.367 18.4308 218.001 15.1187C221.625 11.8159 225.34 8.87001 229.146 6.28174L229.157 6.27392C229.381 6.13627 229.595 6.00966 229.798 5.89404L230.046 5.74756C228.786 4.96359 227.244 4.36338 225.411 3.95459C223.394 3.4997 221.125 3.27099 218.606 3.27099C214.734 3.27104 211.066 3.91003 207.599 5.18701C204.122 6.4676 201.062 8.12406 198.417 10.1538C195.934 12.0595 193.966 14.1003 192.509 16.2739L192.225 16.7104C190.767 19.0226 190.085 21.2212 190.149 23.311C190.193 24.5112 190.484 25.4349 190.994 26.1079L191.206 26.3608C191.711 26.9297 192.286 27.3426 192.928 27.606C193.706 27.9162 194.43 28.0669 195.103 28.0669C196.653 28.0669 198.227 27.5811 199.827 26.5913C201.441 25.5702 202.981 24.2747 204.446 22.7026C205.939 21.1021 207.277 19.4109 208.457 17.6284C209.64 15.8186 210.598 14.1265 211.331 12.5532C212.067 10.9744 212.465 9.73273 212.55 8.81689L212.551 8.81103C212.597 8.41083 212.665 8.08162 212.767 7.84521C212.861 7.62551 213.039 7.36978 213.354 7.36963C213.68 7.36963 213.83 7.65158 213.894 7.85889C213.962 8.08467 213.99 8.39424 213.99 8.76611L213.998 9.15576C214.009 11.1174 213.617 13.2247 212.829 15.4741L212.828 15.4751C211.986 17.8568 210.736 20.1197 209.079 22.2622L209.078 22.2612C207.438 24.4118 205.433 26.1666 203.064 27.522C200.681 28.8861 198.001 29.5649 195.035 29.5649C193.5 29.5649 192.023 29.0184 190.611 27.9497L190.607 27.9458C189.189 26.8298 188.453 25.3407 188.405 23.5034L188.399 23.0669C188.409 20.8857 188.975 18.7784 190.092 16.7505C191.278 14.574 192.918 12.5771 195.007 10.7603C197.092 8.94662 199.458 7.36711 202.104 6.021C204.773 4.65204 207.566 3.59563 210.482 2.85303C213.402 2.0868 216.279 1.70361 219.112 1.70361C224.237 1.70365 228.436 2.74016 231.689 4.83642C233.361 3.97472 234.817 3.33702 236.057 2.92822C237.318 2.51216 238.3 2.29052 238.979 2.29052C239.212 2.29053 239.43 2.32127 239.604 2.41064C239.798 2.50976 239.929 2.68074 239.951 2.90771L239.953 2.92138L239.953 2.93603C239.953 3.21409 239.785 3.41404 239.569 3.54052C239.367 3.65933 239.092 3.73347 238.771 3.78174L238.772 3.78271C237.182 4.12192 235.39 4.89876 233.393 6.12158C235.856 8.30043 237.159 11.0639 237.292 14.394L237.303 14.769C237.316 16.6423 236.778 18.4974 235.702 20.3296L235.701 20.3315C234.626 22.1402 233.112 23.7867 231.167 25.2729L230.771 25.5688C228.758 27.0348 226.399 28.2001 223.7 29.0708C224.211 29.7636 224.474 30.61 224.496 31.5952L224.514 31.9976C224.534 32.9373 224.412 33.8849 224.149 34.8384L224.148 34.8403C223.844 35.923 223.182 37.176 222.186 38.5942L222.185 38.5962C221.184 39.9962 219.668 41.7366 217.644 43.814L217.635 43.8228L217.626 43.8306C216.878 44.4853 216.396 45.075 216.151 45.5972L216.149 45.602C215.895 46.1238 215.789 46.5799 215.809 46.9761L215.809 46.9907C215.809 47.6 216.023 48.1232 216.462 48.5747C216.866 48.9688 217.689 49.2134 219.045 49.2134C220.762 49.2133 222.578 48.5632 224.497 47.228L224.498 47.227C226.44 45.8913 228.257 44.052 229.947 41.7017C231.634 39.3559 232.967 36.6995 233.946 33.7319C234.036 33.3906 234.123 33.1173 234.211 32.9243C234.255 32.8276 234.306 32.7341 234.368 32.6606C234.424 32.5943 234.536 32.4897 234.703 32.4897L234.813 32.4956C235.066 32.5248 235.276 32.6573 235.414 32.8853C235.556 33.1208 235.609 33.4357 235.609 33.7886L235.606 34.1743C235.589 34.9423 235.491 35.7077 235.316 36.4702C236.941 34.195 238.696 32.3234 240.583 30.8599C242.531 29.349 244.442 28.2375 246.316 27.5337C248.201 26.8116 249.877 26.4429 251.34 26.4429C252.719 26.4429 253.767 26.6705 254.393 27.2017C255.005 27.7042 255.351 28.3097 255.378 29.0122C255.445 29.9631 254.98 31.0088 254.08 32.1343L253.894 32.3608C252.87 33.5782 251.091 34.8779 248.59 36.2651C246.095 37.6487 242.631 39.0941 238.207 40.604C237.46 41.8425 236.964 42.9037 236.711 43.7905L236.711 43.7925C236.447 44.694 236.318 45.4944 236.318 46.1958C236.318 47.2082 236.641 47.9592 237.259 48.4907C237.92 49.041 238.692 49.3168 239.588 49.3169C241.659 49.3169 243.594 48.9211 245.395 48.1323C247.234 47.3136 248.905 46.291 250.41 45.0649L250.411 45.064C251.95 43.8283 253.297 42.5828 254.453 41.3286C255.617 40.0426 256.565 38.9312 257.3 37.9946C258.035 37.0349 258.545 36.4143 258.813 36.1636L259.007 35.9839L260.186 36.9624L259.925 37.1948C259.61 37.4745 259.052 38.1113 258.242 39.1274C257.45 40.1494 256.433 41.3173 255.196 42.6323L255.197 42.6333C253.973 43.9596 252.557 45.2489 250.952 46.5015C249.337 47.7621 247.54 48.811 245.564 49.6499L245.565 49.6509C243.595 50.497 241.478 50.9185 239.218 50.9185C236.97 50.9185 235.292 50.3182 234.27 49.0444C233.28 47.8119 232.768 46.3063 232.722 44.5454L232.722 44.5425C232.703 43.5262 232.861 42.4286 233.186 41.2515C232.231 42.72 231.088 44.0849 229.757 45.3433C228.032 46.973 226.202 48.291 224.268 49.2954L224.267 49.2964C222.351 50.2791 220.552 50.7808 218.876 50.7808C217.019 50.7807 215.54 50.3808 214.48 49.5405L214.478 49.5386C213.425 48.6794 212.867 47.574 212.818 46.2417L212.818 46.2388C212.773 44.4978 213.047 42.9214 213.65 41.5171C214.245 40.133 215.012 38.8639 215.95 37.7134C216.875 36.5795 217.801 35.5255 218.727 34.5522L218.737 34.5405L218.749 34.5308C219.934 33.5212 220.658 32.713 220.966 32.102C221.283 31.472 221.426 30.8648 221.405 30.2778L221.404 30.2671C221.404 30.0727 221.374 29.8908 221.318 29.7192C220.839 29.8297 220.375 29.917 219.927 29.977L219.913 29.979C219.389 30.0257 218.898 30.0493 218.438 30.0493C217.456 30.0493 216.669 29.9219 216.112 29.6362L216.104 29.6313C215.58 29.3384 215.21 28.9564 215.176 28.4595C215.139 27.9994 215.484 27.6472 215.928 27.3833C216.444 27.0667 217.159 26.9263 218.034 26.9263C218.79 26.9263 219.524 26.9975 220.236 27.1382C220.929 27.2492 221.558 27.4547 222.12 27.7554C223.59 27.1038 225.013 26.176 226.389 24.9634C227.807 23.7122 229.073 22.3015 230.182 20.731L230.183 20.728C231.314 19.1572 232.188 17.5672 232.807 15.9585L232.808 15.9556C233.447 14.3497 233.739 12.8706 233.696 11.5161L233.677 11.189C233.551 9.64584 232.941 8.30793 231.84 7.16455C229.254 9.00075 226.533 11.4919 223.679 14.644C220.75 17.856 217.862 21.5875 215.018 25.8384L215.015 25.8433C210.654 32.1162 206.669 37.0713 203.061 40.7046L203.062 40.7056C199.481 44.3334 196.212 46.9259 193.255 48.4663C190.308 50.0013 187.588 50.7808 185.102 50.7808C182.627 50.7807 180.739 50.3161 179.494 49.3335L179.492 49.3325C178.286 48.3619 177.663 47.1619 177.663 45.7466ZM239.539 38.5493C243.474 37.0868 246.599 35.5895 248.919 34.0591C250.16 33.2287 251.075 32.4288 251.677 31.6626C252.278 30.8973 252.556 30.1805 252.556 29.5073C252.556 28.9019 252.418 28.5031 252.195 28.2573C251.978 28.0173 251.634 27.8726 251.104 27.8726C249.712 27.8726 248.155 28.6419 246.428 30.2778C244.695 31.919 242.664 34.3108 240.335 37.4595L240.331 37.4644L240.33 37.4634C240.047 37.833 239.784 38.1959 239.539 38.5493ZM217.236 28.4829C217.444 28.587 217.778 28.6548 218.271 28.6548C218.747 28.6548 219.239 28.6046 219.746 28.5063C219.278 28.3864 218.71 28.3218 218.034 28.3218C217.595 28.3218 217.29 28.3496 217.103 28.397C217.139 28.4226 217.184 28.4512 217.236 28.4829Z" fill="#E8393D"/>
</svg>
