<svg width="36" height="37" viewBox="0 0 36 37" fill="none" xmlns="http://www.w3.org/2000/svg">
<g clip-path="url(#clip0_207_1936)">
<path d="M17.1709 16.1877H18.0934C19.0743 16.1877 19.7322 16.865 19.7322 17.8265V17.8421C19.7322 18.8035 19.0705 19.4653 18.0934 19.4653H17.1709V16.1916V16.1877Z" fill="#F4FDFC"/>
<path fill-rule="evenodd" clip-rule="evenodd" d="M-0.000976562 0.173828H23.6423L35.9232 12.4392V36.1019H12.28L-0.000976562 23.8366V0.173828ZM4.77516 4.05079H3.57626V9.48477H4.77516V7.30495H6.98223V9.48477H8.18113V4.05079H6.98223V6.20337H4.77516V4.05079ZM3.33493 17.842C3.33493 19.403 4.52215 20.6369 6.12587 20.6369C7.17297 20.6369 7.79577 20.2671 8.3563 19.6676L7.59336 18.8969C7.16518 19.2823 6.7876 19.5314 6.1648 19.5314C5.23059 19.5314 4.58443 18.7568 4.58443 17.8226V17.807C4.58443 16.8767 5.24616 16.1138 6.1648 16.1138C6.70975 16.1138 7.13404 16.3473 7.55443 16.7249L8.31737 15.8491C7.81134 15.3508 7.19632 15.0122 6.17258 15.0122C4.50269 15.0122 3.33493 16.2772 3.33493 17.8226V17.8382V17.842ZM18.111 6.23061L16.8109 4.05079H15.4135L17.5038 7.34388V9.48867H18.7027V7.32052L20.7929 4.05469H19.4306L18.111 6.23451V6.23061ZM18.0954 20.5435C19.8042 20.5435 20.9876 19.3524 20.9876 17.8265V17.8109C20.9876 16.2811 19.8042 15.1095 18.0954 15.1095H15.974V20.5435H18.0954Z" fill="#F4FDFC"/>
</g>
<defs>
<clipPath id="clip0_207_1936">
<rect width="35.9281" height="35.9281" fill="white" transform="translate(-0.000976562 0.173828)"/>
</clipPath>
</defs>
</svg>
