<svg width="52" height="51" viewBox="0 0 52 51" fill="none" xmlns="http://www.w3.org/2000/svg">
<g clip-path="url(#clip0_464_8331)">
<path d="M0.185547 25.2451C0.185547 39.0288 11.688 50.2451 25.8233 50.2451C39.9585 50.2451 51.461 39.0288 51.461 25.2451C51.461 11.4614 39.964 0.245117 25.8233 0.245117C11.6825 0.245117 0.185547 11.4614 0.185547 25.2451ZM0.383013 25.2451C0.383013 11.5684 11.7977 0.437672 25.8233 0.437672C39.8488 0.437672 51.2635 11.5684 51.2635 25.2451C51.2635 38.9218 39.8488 50.0526 25.8233 50.0526C11.7977 50.0526 0.383013 38.9272 0.383013 25.2451Z" fill="#FDFBED"/>
<path d="M32.3148 17.102V17.931H24.0487V17.1074H20.0774V17.931H13.7914V21.4021C13.7914 21.4021 14.1973 21.4021 14.4003 21.4021C13.7749 22.1722 13.4678 23.0921 13.4678 24.2848C13.4678 25.2475 13.8956 26.3172 14.6142 27.1354C15.4534 28.1944 16.9234 28.8522 18.4428 28.8522H26.133V28.1035H26.5719V28.8362L37.9316 28.8522V25.2528H36.2916V21.4876H37.9316V17.931H36.3464V17.0967L32.3148 17.1074V17.102ZM36.1435 17.2946V18.1289H37.7397C37.7397 18.3107 37.7342 21.1079 37.7342 21.2897H36.0941V25.4507H37.7287C37.7287 25.6326 37.7287 28.4725 37.7287 28.6544C37.5312 28.6544 26.9668 28.6383 26.7748 28.6383V27.9056H25.9356V28.6544H18.4483C16.9838 28.6544 15.5796 28.0233 14.7732 27.0124C14.0821 26.2262 13.6707 25.2101 13.6707 24.2901C13.6707 23.0654 13.9889 22.1401 14.6745 21.37L14.8226 21.2042C14.8226 21.2042 14.1425 21.2042 13.9944 21.2042V18.1289H20.2804V17.3053H23.8457V18.1289H32.5178V17.2999C32.7043 17.2999 35.9515 17.2946 36.138 17.2946" fill="#FDFBED"/>
<path d="M30.1342 21.6833C30.1342 21.0522 29.7173 20.635 29.2072 20.635C28.6971 20.635 28.2802 21.0576 28.2802 21.6833C28.2802 22.3091 28.6971 22.7369 29.2072 22.7369C29.7173 22.7369 30.1342 22.3305 30.1342 21.6833ZM21.1221 22.3839C21.1221 21.8438 20.7436 21.4426 20.2719 21.4426C19.8001 21.4426 19.4217 21.8491 19.4217 22.3839C19.4217 22.9188 19.8001 23.3306 20.2719 23.3306C20.7436 23.3306 21.1221 22.9348 21.1221 22.3839ZM30.2713 24.1596C29.6899 24.1596 29.1633 24.5286 29.1633 25.1383C29.1633 25.748 29.6899 26.1117 30.2713 26.1117C30.8528 26.1117 31.3793 25.7427 31.3793 25.1383C31.3793 24.534 30.8582 24.1596 30.2713 24.1596ZM37.0894 20.7848V18.7471H35.4768V17.9502H33.1181V18.7471H23.2338V17.9502H20.8752V18.7471H14.6715V20.7848H16.5365C15.2419 21.3357 14.4082 22.539 14.4082 24.2986C14.4082 26.6572 16.6846 27.9997 18.5166 27.9997H25.3621V27.283H27.2984V27.9997H37.0839V25.962H35.4713V20.7848H37.0839H37.0894ZM19.3394 20.0628H21.2153V20.603H19.3394V20.0628ZM18.5276 22.3839C18.5276 21.9668 18.7744 21.6031 19.1803 21.3624H18.5166V20.8222H22.0381V21.3624H21.3744C21.7748 21.6031 22.0216 21.9668 22.0216 22.3839C22.0216 23.106 21.2702 23.6889 20.2773 23.6889C19.2845 23.6889 18.5331 23.106 18.5331 22.3839M23.6398 26.4487H20.3541C19.674 26.4487 19.2571 26.0636 19.2571 25.4378V24.1917H20.2993V25.9085H23.6398V26.4487ZM24.3583 22.1647H23.5794V24.4537H22.6195V20.0574H23.5794V21.6245H24.3583V22.1647ZM27.3038 21.6833C27.3038 20.849 28.1266 20.1697 29.2072 20.1697C30.2878 20.1697 31.1106 20.849 31.1106 21.6833C31.1106 22.5176 30.2933 23.1969 29.2072 23.1969C28.1211 23.1969 27.3038 22.5176 27.3038 21.6833ZM33.151 21.3945H32.3392V22.17H33.151V22.7102H32.3392V25.1383C32.3338 25.962 31.4232 26.6305 30.2768 26.6305C29.1304 26.6305 28.2199 25.962 28.2144 25.1383C28.2199 24.3147 29.1304 23.6461 30.2768 23.6461C30.6882 23.6461 31.0667 23.7317 31.3848 23.8815V20.0681H32.3447V20.8597H33.1565V21.3999L33.151 21.3945Z" fill="#FDFBED"/>
<path d="M25.9168 1.6213C12.5384 1.56781 1.64486 12.1048 1.59001 25.1558C1.54065 38.2067 12.3464 48.8239 25.7248 48.8774C39.1031 48.9309 49.9967 38.3939 50.0461 25.343C50.1009 12.292 39.2951 1.67478 25.9168 1.6213ZM48.1976 21.9946L46.3271 22.7167V22.7274L48.3182 22.936L48.384 23.7544L45.7073 23.1446L44.0727 23.3425L43.9685 22.5456L45.5756 22.353L48.0549 21.1388L48.1976 21.9893V21.9946ZM46.2723 28.7608C46.2668 29.4027 45.8444 29.9215 45.8444 29.9215C45.8444 29.9215 45.433 29.3973 45.4385 28.7555C45.4495 28.1136 45.8664 27.5948 45.8664 27.5948C45.8664 27.5948 46.2777 28.1243 46.2668 28.7608M45.1094 32.1519C45.1094 32.1519 44.4128 31.4833 44.1824 30.5152C43.952 29.5471 44.2208 28.8731 44.2208 28.8731C44.2208 28.8731 44.9339 29.408 45.1642 30.3761C45.3946 31.3389 45.1094 32.1519 45.1094 32.1519ZM43.6613 35.0081C43.6613 35.0081 43.0909 34.2326 43.036 33.243C42.9811 32.2535 43.3651 31.6331 43.3651 31.6331C43.3651 31.6331 43.974 32.2803 44.0288 33.2698C44.0837 34.2647 43.6613 35.0135 43.6613 35.0135M47.8081 20.0263L47.0786 20.2456L46.8811 19.5342L43.5242 20.5398L43.2828 19.7749L46.6398 18.7694L46.4039 18.0794L47.1334 17.8654L47.8081 20.0317V20.0263ZM46.541 16.4266L42.6849 18.181L42.3394 17.4536L46.1955 15.7045L46.541 16.432V16.4266ZM25.7522 41.7368C16.4164 41.6994 8.87433 34.2914 8.91272 25.1825C8.95112 16.0789 16.5536 8.72442 25.8893 8.75651C35.2251 8.79396 42.7617 16.2073 42.7288 25.3109C42.6959 34.4144 35.0935 41.7689 25.7577 41.7315M38.3571 40.4799C37.9567 41.4106 37.2327 41.9187 37.2327 41.9187C37.2327 41.9187 37.0626 40.9613 37.4576 40.0252C37.858 39.0946 38.4888 38.6934 38.4888 38.6934C38.4888 38.6934 38.7576 39.5492 38.3571 40.4852M35.8175 42.0738C35.2141 42.8975 34.3914 43.2291 34.3914 43.2291C34.3914 43.2291 34.4462 42.2557 35.0496 41.4373C35.653 40.619 36.366 40.3676 36.366 40.3676C36.366 40.3676 36.4264 41.2608 35.823 42.0792M17.4038 43.2291C17.4038 43.2291 16.5755 42.8975 15.9721 42.0738C15.3688 41.2555 15.4291 40.3622 15.4291 40.3622C15.4291 40.3622 16.1367 40.6136 16.7456 41.432C17.3489 42.2557 17.4038 43.2238 17.4038 43.2238M14.5625 41.9187C14.5625 41.9187 13.8384 41.4106 13.438 40.4799C13.0376 39.5492 13.3063 38.6881 13.3063 38.6881C13.3063 38.6881 13.9426 39.0946 14.3376 40.0199C14.738 40.9559 14.5625 41.9134 14.5625 41.9134M43.2773 13.2174C43.8478 12.859 44.5664 12.9339 45.0491 13.656C45.1972 13.8806 45.2794 14.1373 45.2794 14.2818L44.6102 14.5492C44.6102 14.4155 44.5664 14.2283 44.4402 14.0304C44.2482 13.7415 43.9795 13.7148 43.7875 13.8378C43.579 13.9715 43.5297 14.1427 43.5461 14.6669C43.5626 15.3034 43.3157 15.6992 42.9428 15.9345C42.2955 16.341 41.555 16.1431 41.1052 15.4638C40.9242 15.1857 40.8145 14.8648 40.809 14.7097L41.4727 14.4315C41.4837 14.6187 41.5824 14.8915 41.7141 15.0894C41.9225 15.4103 42.1968 15.4585 42.4271 15.3141C42.6849 15.1483 42.7124 14.9183 42.7124 14.5011C42.6959 13.8378 42.9537 13.426 43.2719 13.2227M42.3449 10.1953C42.652 10.5163 42.8605 10.8586 42.866 11.2276C42.8714 11.5646 42.7179 11.8053 42.4491 12.046C42.1145 12.3455 41.6702 12.4578 41.2259 12.2867H41.2149C41.3301 12.5755 41.2314 12.859 40.9516 13.2174C40.6609 13.5864 40.3373 14.0732 40.2715 14.2283L39.7065 13.5597C39.7613 13.4474 40.0082 13.0943 40.3044 12.7413C40.639 12.3348 40.6609 12.1423 40.4689 11.9444L40.3867 11.8588L39.147 12.982L38.5601 12.4151L41.6921 9.58022C41.8786 9.75673 42.1145 9.97603 42.3284 10.2007M40.1782 8.1949L39.7339 8.76721L38.9221 8.16815L38.3352 8.92767L39.1086 9.49464L38.6972 10.0295L37.9238 9.46255L37.2327 10.3504L38.1048 10.9923L37.666 11.57L36.1357 10.4467L38.7082 7.1198L40.1782 8.20025V8.1949ZM34.8411 5.0124L35.6694 5.37611L34.6163 8.49978H34.6272L36.5909 5.8361L37.3698 6.2747L34.5669 9.51604L33.7551 9.10953L34.8411 5.0124ZM32.6635 4.22078L33.4424 4.47752L32.0656 8.41954L31.2868 8.15746L32.658 4.21544L32.6635 4.22078ZM28.3412 3.3222L29.0762 3.41312L29.6906 6.39237H29.7015L30.1074 3.57894L30.8205 3.72335L30.102 7.83653L29.3669 7.68677L28.791 4.71287H28.78L28.3467 7.51026L27.6227 7.43003L28.3412 3.3222ZM24.6442 3.21522L24.7375 5.90564C24.7594 6.51004 24.9569 6.6919 25.1653 6.6812C25.4066 6.67586 25.5712 6.49935 25.5438 5.87889L25.445 3.18848H26.2733L26.3611 5.70773C26.3995 6.76678 26.01 7.35515 25.1927 7.38189C24.3096 7.41398 23.9421 6.83097 23.9037 5.79331L23.8159 3.26871L24.6387 3.20987L24.6442 3.21522ZM19.373 4.07637C19.6801 3.98009 19.927 3.96939 20.0696 3.99079L20.1464 4.69147C20.0147 4.67543 19.8556 4.69147 19.6582 4.74496C19.1261 4.91077 18.8189 5.40286 19.1535 6.42981C19.4662 7.37654 19.9544 7.59584 20.3164 7.47817C20.3877 7.45677 20.4371 7.43538 20.4645 7.41398L20.1518 6.46191L19.7953 6.57423L19.5869 5.94843L20.6729 5.60611L21.3641 7.70816C21.216 7.83118 20.8649 8.01839 20.5742 8.10932C20.1135 8.25373 19.724 8.23234 19.3675 8.05583C18.9122 7.83653 18.5337 7.31236 18.3253 6.63307C17.8755 5.1996 18.5173 4.3438 19.3675 4.07637M14.4198 6.19447L15.8076 7.31236C16.0764 7.53165 16.5207 7.89537 16.8004 8.15211H16.8114C16.5755 7.7777 16.1696 7.17864 15.7911 6.51539L15.3304 5.70238L15.9776 5.38146L18.0565 9.03465L17.3818 9.35557L16.016 8.27513C15.7198 8.03444 15.292 7.67072 15.0232 7.38724H15.0122C15.2371 7.75095 15.5772 8.29117 15.9941 9.0186L16.4658 9.84766L15.846 10.2167L13.7726 6.56888L14.4144 6.18912L14.4198 6.19447ZM11.6443 8.06118L15.0781 10.7462L14.4253 11.2276L13.6409 10.6018L13.0595 11.0779L13.5587 11.939L12.9663 12.4792L10.8874 8.68163L11.6389 8.06118H11.6443ZM8.30935 11.2811L9.2912 11.7144C9.549 11.832 9.83972 11.9658 10.1195 12.1209V12.1102C9.92748 11.8802 9.7355 11.6288 9.55449 11.3881L8.94563 10.559L9.52158 9.95463L10.8709 12.276L12.1435 13.3297L11.6059 13.9394L10.3608 12.9071L7.76632 11.9497L8.30935 11.2865V11.2811ZM5.95621 14.6776L9.06082 15.1536V15.1429L6.48279 13.795L6.86675 13.1906L10.5857 15.2606L10.1743 15.881L7.16844 15.421L7.13553 15.405L9.66419 16.7582L9.33508 17.3947L5.61065 15.3141L5.95621 14.6669V14.6776ZM4.57395 17.6782L8.92918 18.2505L8.64395 18.9833L7.66759 18.8496L7.42075 19.5503L8.27644 20.0263L8.05155 20.7912L4.26129 18.5608L4.57395 17.6782ZM8.75365 33.2377C8.6988 34.2272 8.12834 35.0028 8.12834 35.0028C8.12834 35.0028 7.70598 34.254 7.75535 33.2591C7.8102 32.2696 8.41906 31.6224 8.41906 31.6224C8.41906 31.6224 8.80302 32.2428 8.74817 33.2323M3.35624 22.7274L5.06761 22.9467L5.17732 22.1177L3.44949 21.8984L3.60307 21.1014L7.84311 21.6416L7.69501 22.4386L5.93976 22.2139L5.83005 23.0483L7.58531 23.273L7.51949 24.07L3.27945 23.5297L3.35624 22.7328V22.7274ZM7.61274 30.5205C7.38236 31.4887 6.68574 32.1573 6.68574 32.1573C6.68574 32.1573 6.40051 31.3496 6.63089 30.3815C6.86127 29.4133 7.57434 28.8785 7.57434 28.8785C7.57434 28.8785 7.84311 29.5524 7.61274 30.5205ZM6.35114 28.7501C6.35663 29.392 5.94524 29.9161 5.94524 29.9161C5.94524 29.9161 5.52288 29.4026 5.5174 28.7555C5.51191 28.1136 5.9233 27.5894 5.9233 27.5894C5.9233 27.5894 6.34566 28.1083 6.35663 28.7501M3.54273 29.2101C3.54273 29.2101 4.61783 29.3973 5.41318 30.2745C6.20853 31.1517 6.37309 32.2749 6.37309 32.2749C6.37309 32.2749 5.24862 31.9807 4.45327 31.1035C3.65792 30.2264 3.54273 29.2101 3.54273 29.2101ZM4.50813 32.66C4.50813 32.66 5.60516 32.66 6.54313 33.3875C7.48109 34.1202 7.84311 35.2007 7.84311 35.2007C7.84311 35.2007 6.68026 35.0991 5.74229 34.3663C4.80433 33.6389 4.50813 32.66 4.50813 32.66ZM10.0811 38.6827C9.98782 39.3032 9.57643 39.9932 9.19795 39.9397C8.81947 39.8862 8.62201 39.1106 8.70977 38.4902C8.75914 38.1906 8.86336 37.9339 9.01146 37.7467C8.79205 37.8323 8.50133 37.859 8.19965 37.8162C7.56337 37.7253 6.8503 37.3241 6.90515 36.9551C6.96 36.5914 7.75535 36.3988 8.39712 36.4844C8.70429 36.5272 8.97306 36.6341 9.15956 36.7732C9.07728 36.5593 9.04437 36.2758 9.08825 35.9816C9.1815 35.3611 9.59288 34.6658 9.97136 34.7193C10.3498 34.7728 10.5473 35.5484 10.4541 36.1742C10.4102 36.4737 10.3005 36.7304 10.1579 36.9176C10.3827 36.832 10.668 36.8053 10.9751 36.8481C11.6114 36.9337 12.3245 37.3402 12.2697 37.7039C12.2148 38.073 11.414 38.2655 10.7777 38.1746C10.4705 38.1318 10.2072 38.0248 10.0152 37.8858C10.103 38.1051 10.1304 38.3832 10.0865 38.6827M12.149 42.2931C11.0465 42.0471 10.3827 41.3357 10.3827 41.3357C10.3827 41.3357 11.3152 40.8971 12.4177 41.1431C13.5203 41.3892 14.2827 42.1647 14.2827 42.1647C14.2827 42.1647 13.2515 42.5392 12.149 42.2931ZM15.2481 44.1384C14.1675 44.1384 13.3941 43.6196 13.3941 43.6196C13.3941 43.6196 14.162 43.0205 15.2426 43.0152C16.3232 43.0152 17.2008 43.5715 17.2008 43.5715C17.2008 43.5715 16.3232 44.1384 15.2481 44.1384ZM21.1227 44.5182C20.8539 44.6466 20.5797 44.7054 20.3438 44.6947C20.5358 44.8231 20.7168 45.0317 20.8539 45.2938C21.1337 45.8447 21.194 46.6256 20.8539 46.7861C20.5194 46.9519 19.916 46.4277 19.6417 45.8768C19.5046 45.6093 19.4497 45.3419 19.4607 45.1172C19.3291 45.3045 19.1151 45.481 18.8409 45.6147C18.2759 45.8875 17.4751 45.941 17.3105 45.6147C17.146 45.2884 17.678 44.7054 18.2485 44.4326C18.5173 44.2989 18.797 44.2454 19.0274 44.2561C18.8354 44.1224 18.6544 43.9191 18.5173 43.6517C18.2375 43.1008 18.1827 42.3199 18.5173 42.1594C18.8519 41.9989 19.4497 42.5178 19.7295 43.074C19.8611 43.3361 19.9215 43.6089 19.9105 43.8335C20.0421 43.6517 20.2561 43.4698 20.5303 43.3415C21.0953 43.0687 21.9016 43.0152 22.0662 43.3415C22.2307 43.6677 21.6932 44.2561 21.1282 44.5235M25.8235 46.4009C25.3518 46.4009 24.9678 46.0265 24.9678 45.5665C24.9678 45.1066 25.3518 44.7321 25.8235 44.7321C26.2952 44.7321 26.6792 45.1066 26.6792 45.5665C26.6792 46.0265 26.2952 46.4009 25.8235 46.4009ZM34.4846 45.62C34.3201 45.9463 33.5137 45.8875 32.9542 45.62C32.68 45.4917 32.4661 45.3098 32.3344 45.1226C32.3454 45.3472 32.2851 45.62 32.1479 45.8821C31.8737 46.433 31.2703 46.9519 30.9357 46.7914C30.6011 46.6309 30.6614 45.85 30.9357 45.2991C31.0673 45.037 31.2538 44.8284 31.4403 44.7C31.2045 44.7107 30.9302 44.6519 30.6614 44.5235C30.0965 44.2508 29.5589 43.6677 29.729 43.3415C29.8935 43.0152 30.6944 43.074 31.2593 43.3415C31.5281 43.4698 31.7475 43.6517 31.8792 43.8335C31.8682 43.6089 31.9285 43.3361 32.0602 43.074C32.3399 42.5231 32.9378 41.9989 33.2724 42.1594C33.607 42.3199 33.5466 43.1008 33.2724 43.6517C33.1353 43.9138 32.9542 44.1224 32.7623 44.2561C32.9981 44.2454 33.2724 44.2989 33.5412 44.4326C34.1061 44.7054 34.6437 45.2938 34.4791 45.6147M36.547 44.1384C35.4719 44.1384 34.5943 43.5715 34.5943 43.5715C34.5943 43.5715 35.4719 43.0098 36.5525 43.0152C37.6331 43.0152 38.401 43.6196 38.401 43.6196C38.401 43.6196 37.6276 44.1438 36.547 44.1384ZM39.6462 42.2931C38.5436 42.5392 37.5124 42.1647 37.5124 42.1647C37.5124 42.1647 38.2749 41.3892 39.3774 41.1431C40.4799 40.8971 41.4124 41.3357 41.4124 41.3357C41.4124 41.3357 40.7487 42.0471 39.6462 42.2931ZM43.59 37.8162C43.2883 37.859 42.9976 37.8323 42.7782 37.7467C42.9208 37.9339 43.0305 38.1906 43.0744 38.4902C43.1676 39.1106 42.9702 39.8915 42.5917 39.9397C42.2132 39.9932 41.8018 39.3032 41.7086 38.6827C41.6647 38.3832 41.6921 38.1051 41.7799 37.8858C41.5879 38.0248 41.3246 38.1318 41.0175 38.1746C40.3757 38.2655 39.5803 38.073 39.5255 37.7039C39.4706 37.3348 40.1837 36.9337 40.82 36.8481C41.1272 36.8053 41.4124 36.832 41.6373 36.9176C41.4947 36.7358 41.385 36.4737 41.3411 36.1742C41.2478 35.5537 41.4453 34.7728 41.8238 34.7193C42.2023 34.6658 42.6136 35.3611 42.7069 35.9816C42.7508 36.2811 42.7179 36.5593 42.6356 36.7732C42.8221 36.6341 43.0909 36.5272 43.398 36.4844C44.0343 36.3935 44.8351 36.586 44.89 36.9551C44.9448 37.3241 44.2318 37.7253 43.5955 37.8162M46.0474 34.3663C45.1094 35.0937 43.9465 35.2007 43.9465 35.2007C43.9465 35.2007 44.3086 34.1202 45.2465 33.3875C46.1845 32.66 47.2815 32.66 47.2815 32.66C47.2815 32.66 46.9853 33.6389 46.0419 34.3663M47.3419 31.0982C46.5465 31.9754 45.4221 32.2696 45.4221 32.2696C45.4221 32.2696 45.5866 31.1463 46.382 30.2691C47.1773 29.392 48.2579 29.2047 48.2579 29.2047C48.2579 29.2047 48.1372 30.221 47.3473 31.0982M19.3784 43.8817C19.0438 44.0422 18.9012 44.4433 19.0658 44.7749C19.2358 45.1066 19.6472 45.2403 19.9818 45.0745C20.3219 44.914 20.459 44.5128 20.2945 44.1866C20.1299 43.8549 19.7185 43.7212 19.3784 43.8817ZM10.273 37.4258C10.3279 37.0567 10.0646 36.709 9.68065 36.6555C9.30217 36.6021 8.94563 36.8588 8.89078 37.2332C8.83593 37.6023 9.09922 37.9499 9.4777 38.0034C9.85617 38.0569 10.2127 37.8002 10.2676 37.4258M5.19926 18.3949V18.411C5.44609 18.5394 5.84102 18.7373 6.06043 18.8549L6.84481 19.2721L7.03679 18.7159L6.15368 18.5661C5.89588 18.5287 5.479 18.4484 5.19926 18.3949ZM32.4112 43.8817C32.0711 43.7212 31.6652 43.8549 31.4952 44.1866C31.3306 44.5128 31.4678 44.914 31.8078 45.0745C32.1424 45.2403 32.5538 45.1066 32.7239 44.7749C32.8884 44.4433 32.7513 44.0475 32.4112 43.8817ZM12.4945 9.59627C12.2971 9.43046 11.9789 9.15232 11.7705 8.96512L11.754 8.97581C11.9021 9.21651 12.138 9.58022 12.2642 9.78882L12.7139 10.543L13.1747 10.1632L12.5 9.59092L12.4945 9.59627ZM42.109 36.6555C41.7305 36.709 41.4618 37.0567 41.5221 37.4258C41.5769 37.8002 41.928 38.0569 42.312 38.0034C42.6959 37.9499 42.9592 37.6023 42.9044 37.2332C42.8495 36.8588 42.4985 36.6021 42.1145 36.6555M41.8293 11.5058C42.0925 11.2651 42.1803 10.9923 41.939 10.7195C41.8896 10.6714 41.8293 10.6125 41.7909 10.5965L40.8639 11.4362L40.9626 11.5379C41.204 11.7946 41.555 11.7518 41.8293 11.5058Z" fill="#FDFBED"/>
<path d="M22.4373 34.6681L22.5086 34.7055C22.5086 34.7055 22.5086 34.7483 22.5196 34.7804C22.5196 34.8071 22.5361 34.8339 22.547 34.8553C22.5855 34.9087 22.6349 34.9568 22.7007 34.9943C22.7666 35.0317 22.838 35.0691 22.9093 35.0905C22.9807 35.1173 23.0575 35.1333 23.1344 35.144C23.2112 35.1547 23.2826 35.16 23.343 35.16C23.9413 35.16 24.2597 34.8285 24.2981 34.1762C24.1334 34.2617 23.9742 34.3366 23.8151 34.4008C23.6504 34.4649 23.4857 34.4917 23.31 34.4917C23.1728 34.4917 23.0301 34.4703 22.8819 34.4382C22.7392 34.4008 22.6019 34.3419 22.4867 34.2617C22.3714 34.1815 22.2726 34.0799 22.2012 33.957C22.1244 33.834 22.0859 33.6843 22.0859 33.5078C22.0859 33.2993 22.1299 33.1175 22.2177 32.9678C22.3 32.818 22.4153 32.6951 22.5525 32.5988C22.6898 32.5026 22.8435 32.4331 23.0136 32.3849C23.1838 32.3368 23.354 32.3154 23.5241 32.3154C23.7327 32.3154 23.9303 32.3529 24.106 32.4277C24.2816 32.5026 24.4299 32.6149 24.5561 32.7485C24.6824 32.8876 24.7812 33.0533 24.847 33.2405C24.9184 33.433 24.9513 33.6415 24.9513 33.8714C24.9513 34.1441 24.9129 34.3847 24.8306 34.6039C24.7537 34.8232 24.6384 35.0103 24.4957 35.1654C24.3475 35.3204 24.1773 35.4381 23.9742 35.5236C23.7711 35.6038 23.5461 35.6466 23.2991 35.6466C23.1289 35.6466 22.9807 35.6306 22.8599 35.6092C22.7392 35.5824 22.6349 35.5504 22.558 35.5076C22.4757 35.4702 22.4098 35.4327 22.3604 35.4006C22.311 35.3686 22.2671 35.3525 22.2396 35.3525C22.2012 35.3525 22.1628 35.3686 22.1299 35.39L22.0859 35.3472L22.4318 34.6628L22.4373 34.6681ZM23.2057 32.8822C23.1179 32.8983 23.0411 32.9303 22.9697 32.9731C22.9038 33.0159 22.8435 33.0747 22.805 33.1442C22.7666 33.2191 22.7446 33.3046 22.7446 33.4116C22.7446 33.5185 22.7666 33.6094 22.805 33.6843C22.8435 33.7591 22.9038 33.8126 22.9697 33.8554C23.0411 33.8981 23.1179 33.9302 23.2057 33.9463C23.2936 33.9623 23.3869 33.973 23.4747 33.973C23.5625 33.973 23.6559 33.9623 23.7437 33.9463C23.8315 33.9249 23.9084 33.8981 23.9797 33.8554C24.0511 33.8126 24.106 33.7538 24.1444 33.6843C24.1828 33.6094 24.2048 33.5239 24.2048 33.4116C24.2048 33.2993 24.1828 33.2137 24.1444 33.1442C24.106 33.0694 24.0511 33.0159 23.9797 32.9731C23.9084 32.9303 23.8315 32.8983 23.7437 32.8822C23.6559 32.8662 23.568 32.8555 23.4747 32.8555C23.3814 32.8555 23.2936 32.8662 23.2057 32.8822Z" fill="#FDFBED"/>
<path d="M28.6753 34.6681L28.7466 34.7055C28.7466 34.7055 28.7466 34.7483 28.7575 34.7804C28.7575 34.8071 28.774 34.8339 28.785 34.8553C28.8234 34.9087 28.8727 34.9568 28.9386 34.9943C29.0044 35.0317 29.0757 35.0691 29.147 35.0905C29.2238 35.1173 29.3006 35.1333 29.3719 35.144C29.4487 35.1547 29.52 35.16 29.5803 35.16C30.1782 35.16 30.4963 34.8285 30.5347 34.1762C30.3757 34.2617 30.2111 34.3366 30.052 34.4008C29.893 34.4649 29.7229 34.4917 29.5474 34.4917C29.4103 34.4917 29.2677 34.4703 29.1196 34.4382C28.9715 34.4008 28.8398 34.3419 28.7246 34.2617C28.6094 34.1815 28.5107 34.0799 28.4339 33.957C28.3626 33.834 28.3242 33.6843 28.3242 33.5078C28.3242 33.2993 28.3681 33.1175 28.4559 32.9678C28.5381 32.818 28.6533 32.6951 28.7905 32.5988C28.9276 32.5026 29.0867 32.4331 29.2567 32.3849C29.4267 32.3368 29.5968 32.3154 29.7668 32.3154C29.9807 32.3154 30.1727 32.3529 30.3482 32.4277C30.5238 32.5026 30.6774 32.6149 30.8035 32.7485C30.9297 32.8876 31.0284 33.0533 31.0942 33.2405C31.1655 33.433 31.1984 33.6415 31.1984 33.8714C31.1984 34.1441 31.1601 34.3847 31.0778 34.6039C31.001 34.8232 30.8858 35.0103 30.7432 35.1654C30.5951 35.3204 30.425 35.4381 30.2221 35.5236C30.0191 35.6038 29.7942 35.6466 29.5474 35.6466C29.3774 35.6466 29.2293 35.6306 29.1086 35.6092C28.9879 35.5824 28.8837 35.5504 28.8069 35.5076C28.7246 35.4702 28.6643 35.4327 28.6149 35.4006C28.5656 35.3686 28.5217 35.3525 28.4943 35.3525C28.4559 35.3525 28.4175 35.3686 28.3846 35.39L28.3407 35.3472L28.6862 34.6628L28.6753 34.6681ZM29.4432 32.8822C29.3554 32.8983 29.2732 32.9303 29.2073 32.9731C29.1415 33.0159 29.0867 33.0747 29.0428 33.1442C29.0044 33.2191 28.9824 33.3046 28.9824 33.4116C28.9824 33.5185 29.0044 33.6094 29.0428 33.6843C29.0812 33.7591 29.1415 33.8126 29.2073 33.8554C29.2786 33.8981 29.3554 33.9302 29.4432 33.9463C29.531 33.9623 29.6187 33.973 29.712 33.973C29.8052 33.973 29.893 33.9623 29.9807 33.9463C30.0685 33.9249 30.1508 33.8981 30.2166 33.8554C30.2879 33.8126 30.3373 33.7538 30.3812 33.6843C30.4196 33.6094 30.4415 33.5239 30.4415 33.4116C30.4415 33.2993 30.4196 33.2137 30.3812 33.1442C30.3373 33.0694 30.2879 33.0159 30.2166 32.9731C30.1453 32.9303 30.0685 32.8983 29.9807 32.8822C29.893 32.8662 29.8052 32.8555 29.712 32.8555C29.6187 32.8555 29.531 32.8662 29.4432 32.8822Z" fill="#FDFBED"/>
<path d="M25.1968 32.802L25.2681 32.7485C25.2955 32.7699 25.3339 32.7806 25.3668 32.7806C25.3887 32.7806 25.4217 32.7592 25.4765 32.7111C25.5259 32.663 25.6027 32.6095 25.7014 32.5507C25.8001 32.4919 25.9263 32.4384 26.0854 32.3903C26.2389 32.3422 26.4309 32.3154 26.6503 32.3154C26.7984 32.3154 26.9465 32.3315 27.1001 32.3636C27.2537 32.3956 27.3853 32.4491 27.5115 32.524C27.6377 32.5935 27.7419 32.6897 27.8187 32.802C27.8955 32.9143 27.9339 33.0533 27.9339 33.2137C27.9339 33.3634 27.8955 33.5025 27.8132 33.6254C27.7309 33.7538 27.6212 33.834 27.4841 33.8661V33.8768C27.6486 33.9142 27.7803 33.9997 27.8845 34.1227C27.9887 34.2457 28.0436 34.4008 28.0436 34.5879C28.0436 34.8018 27.9942 34.9729 27.8955 35.1119C27.7967 35.2509 27.6761 35.3579 27.5334 35.4381C27.3908 35.5183 27.2263 35.5718 27.0562 35.5985C26.8862 35.6252 26.7216 35.6413 26.5681 35.6413C26.3925 35.6413 26.2335 35.6252 26.0854 35.5878C25.9318 35.5557 25.8056 35.5129 25.6904 35.4648C25.5752 35.4167 25.482 35.3739 25.4052 35.3311C25.3284 35.2937 25.2736 35.2723 25.2461 35.2723C25.2297 35.2723 25.2132 35.2723 25.1968 35.2884C25.1858 35.2937 25.1693 35.3044 25.1529 35.3097L25.1035 35.2937L25.4381 34.4008L25.5039 34.4328C25.5039 34.4328 25.4984 34.4542 25.4984 34.4756V34.5184C25.4984 34.6146 25.5423 34.7002 25.6246 34.775C25.7069 34.8499 25.8056 34.9141 25.9263 34.9675C26.0415 35.021 26.1676 35.0584 26.2938 35.0852C26.4254 35.1119 26.5297 35.1226 26.6174 35.1226C26.6887 35.1226 26.771 35.1173 26.8643 35.1012C26.9575 35.0852 27.0453 35.0584 27.1275 35.021C27.2098 34.9836 27.2756 34.9355 27.336 34.8713C27.3908 34.8071 27.4237 34.7216 27.4237 34.6146C27.4237 34.5077 27.3963 34.4328 27.3415 34.374C27.2866 34.3099 27.2208 34.2671 27.1385 34.2297C27.0617 34.1976 26.974 34.1762 26.8862 34.1655C26.7984 34.1548 26.7216 34.1494 26.6558 34.1494C26.5626 34.1494 26.4858 34.1601 26.4145 34.1762C26.3487 34.1922 26.3048 34.2403 26.2828 34.3152H26.2115V33.4704H26.2828C26.2883 33.5559 26.3322 33.6094 26.4035 33.6361C26.4803 33.6629 26.5626 33.6789 26.6558 33.6789C26.7162 33.6789 26.7875 33.6789 26.8697 33.6629C26.952 33.6522 27.0233 33.6308 27.0946 33.5934C27.1659 33.5613 27.2263 33.5132 27.2756 33.4543C27.325 33.3955 27.3524 33.3207 27.3524 33.2351C27.3524 33.1496 27.3305 33.0854 27.2866 33.0319C27.2427 32.9785 27.1879 32.941 27.1166 32.9143C27.0453 32.8876 26.9685 32.8662 26.8807 32.8555C26.7929 32.8448 26.7107 32.8394 26.6229 32.8394C26.5187 32.8394 26.4145 32.8501 26.3048 32.8822C26.1951 32.9036 26.1018 32.9357 26.0086 32.9785C25.9208 33.0159 25.8495 33.064 25.7892 33.1121C25.7288 33.1603 25.7014 33.2137 25.7014 33.2618C25.7014 33.2832 25.7014 33.2993 25.7014 33.3207C25.7014 33.3474 25.7124 33.3688 25.7179 33.3848L25.6685 33.4223L25.2077 32.786L25.1968 32.802Z" fill="#FDFBED"/>
<path d="M20.7532 35.5576C20.7916 35.5576 20.8246 35.5469 20.852 35.5202C20.8795 35.4988 20.8959 35.4507 20.8959 35.3812V33.3012C20.8685 33.3012 20.8356 33.3012 20.8026 33.3065C20.7642 33.3065 20.7313 33.3172 20.6928 33.3279C20.6599 33.3386 20.627 33.3547 20.5995 33.3707C20.5721 33.3921 20.5501 33.4135 20.5391 33.4509H20.4678V32.6649H20.5391C20.5391 32.7023 20.5556 32.7291 20.5885 32.7397C20.627 32.7558 20.6544 32.7611 20.6873 32.7611C20.7532 32.7611 20.8081 32.7397 20.852 32.6916C20.8959 32.6488 20.9179 32.5954 20.9179 32.5312C20.9179 32.4724 20.9069 32.435 20.8795 32.4189C20.852 32.4029 20.8191 32.3868 20.7807 32.3815V32.3066H21.7083V32.3815C21.6644 32.3922 21.626 32.4082 21.5931 32.4243C21.5656 32.4457 21.5492 32.4777 21.5492 32.5205V35.3758C21.5492 35.4453 21.5656 35.4934 21.5931 35.5148C21.626 35.5416 21.6589 35.5523 21.6974 35.5523V35.6271H20.7477V35.5523L20.7532 35.5576Z" fill="#FDFBED"/>
</g>
<defs>
<clipPath id="clip0_464_8331">
<rect width="51.2754" height="50" fill="white" transform="translate(0.192383 0.245117)"/>
</clipPath>
</defs>
</svg>
