<svg width="46" height="46" viewBox="0 0 46 46" fill="none" xmlns="http://www.w3.org/2000/svg">
<g clip-path="url(#clip0_464_8327)">
<path d="M45.7158 15.5371V45.3613H15.915L0.436523 29.9023V0.078125H30.2363L45.7158 15.5371ZM8.21777 18.7803C6.11304 18.7803 4.64064 20.3746 4.64062 22.3223V22.3467C4.64062 24.314 6.13784 25.8691 8.15918 25.8691C9.47866 25.869 10.2633 25.4029 10.9697 24.6475L10.0088 23.6768C9.46916 24.1624 8.99285 24.4765 8.20801 24.4766C7.03053 24.4766 6.21582 23.4997 6.21582 22.3223V22.3027C6.21582 21.1302 7.05015 20.1689 8.20801 20.1689C8.89462 20.169 9.42928 20.4628 9.95898 20.9385L10.9209 19.835C10.2831 19.207 9.50798 18.7803 8.21777 18.7803ZM20.5713 25.752H23.2451C25.3989 25.752 26.8906 24.2503 26.8906 22.3271V22.3076C26.8906 20.3795 25.3989 18.9023 23.2451 18.9023H20.5713V25.752ZM23.2441 20.2627C24.4802 20.2629 25.3096 21.1159 25.3096 22.3271V22.3467C25.3096 23.5579 24.4753 24.3914 23.2441 24.3916H22.0811V20.2627H23.2441ZM22.499 9.11523V11.8184H24.0107V9.08594L26.6455 4.96973H24.9277L23.2646 7.7168V7.71191L21.626 4.96484H19.8652L22.499 9.11523ZM4.94531 11.8135H6.45605V9.06641H9.23828V11.8135H10.749V4.96484H9.23828V7.67773H6.45605V4.96484H4.94531V11.8135Z" fill="#FDFBED"/>
</g>
<defs>
<clipPath id="clip0_464_8327">
<rect width="45.284" height="45.2832" fill="white" transform="translate(0.422852 0.078125)"/>
</clipPath>
</defs>
</svg>
