<svg width="38" height="38" viewBox="0 0 38 38" fill="none" xmlns="http://www.w3.org/2000/svg">
<g clip-path="url(#clip0_595_320)">
<path d="M37.9541 13.3965V37.8389H13.5312L0.845703 25.1699V0.726562H25.2676L37.9541 13.3965ZM7.22266 16.0537C5.49778 16.0537 4.29112 17.3608 4.29102 18.957V18.9775C4.29111 20.5897 5.51744 21.8641 7.17383 21.8643C8.25544 21.8643 8.89951 21.4825 9.47852 20.8633L8.69043 20.0674C8.24813 20.4654 7.85721 20.7227 7.21387 20.7227C6.24911 20.7224 5.58203 19.9219 5.58203 18.957V18.9414C5.58203 17.9806 6.26518 17.1926 7.21387 17.1924C7.77668 17.1924 8.21525 17.4334 8.64941 17.8232L9.4375 16.9189C8.91484 16.4043 8.27994 16.0538 7.22266 16.0537ZM17.3467 21.7676H19.5381C21.3032 21.7676 22.5254 20.5371 22.5254 18.9609V18.9453C22.5254 17.3651 21.3032 16.1543 19.5381 16.1543H17.3467V21.7676ZM19.5361 17.2686C20.5493 17.2686 21.2295 17.9682 21.2295 18.9609V18.9766C21.2295 19.9693 20.5453 20.6533 19.5361 20.6533H18.584V17.2686H19.5361ZM18.9268 8.13281V10.3486H20.166V8.10938L22.3252 4.73535H20.917L19.5547 6.9873V6.9834L18.2109 4.73145H16.7676L18.9268 8.13281ZM4.54004 10.3447H5.7793V8.09277H8.05859V10.3447H9.29688V4.73145H8.05859V6.95508H5.7793V4.73145H4.54004V10.3447Z" fill="#FDFBED"/>
</g>
<defs>
<clipPath id="clip0_595_320">
<rect width="37.1127" height="37.1127" fill="white" transform="translate(0.833984 0.726562)"/>
</clipPath>
</defs>
</svg>
