<svg width="43" height="42" viewBox="0 0 43 42" fill="none" xmlns="http://www.w3.org/2000/svg">
<g clip-path="url(#clip0_595_311)">
<path d="M0.142578 21.2822C0.142578 32.5788 9.56943 41.7713 21.1541 41.7713C32.7387 41.7713 42.1656 32.5788 42.1656 21.2822C42.1656 9.98548 32.7432 0.792969 21.1541 0.792969C9.56493 0.792969 0.142578 9.98548 0.142578 21.2822ZM0.304412 21.2822C0.304412 10.0732 9.65934 0.95078 21.1541 0.95078C32.6488 0.95078 42.0037 10.0732 42.0037 21.2822C42.0037 32.4911 32.6488 41.6135 21.1541 41.6135C9.65934 41.6135 0.304412 32.4955 0.304412 21.2822Z" fill="#FDFBED"/>
<path d="M26.4755 14.6079V15.2873H19.7009V14.6123H16.4463V15.2873H11.2945V18.1321C11.2945 18.1321 11.6272 18.1321 11.7935 18.1321C11.281 18.7633 11.0293 19.5172 11.0293 20.4947C11.0293 21.2837 11.3799 22.1603 11.9688 22.831C12.6566 23.6988 13.8614 24.238 15.1066 24.238H21.4092V23.6243H21.7688V24.2248L31.0788 24.238V21.288H29.7346V18.2022H31.0788V15.2873H29.7796V14.6035L26.4755 14.6123V14.6079ZM29.6133 14.7657V15.4495H30.9214C30.9214 15.5985 30.9169 17.891 30.9169 18.04H29.5728V21.4502H30.9124C30.9124 21.5993 30.9124 23.9268 30.9124 24.0758C30.7506 24.0758 22.0925 24.0627 21.9351 24.0627V23.4622H21.2473V24.0758H15.1111C13.9108 24.0758 12.76 23.5586 12.0992 22.7301C11.5328 22.0858 11.1956 21.253 11.1956 20.499C11.1956 19.4953 11.4564 18.737 12.0183 18.1058L12.1397 17.9699C12.1397 17.9699 11.5822 17.9699 11.4609 17.9699V15.4495H16.6126V14.7745H19.5346V15.4495H26.6418V14.7701C26.7947 14.7701 29.4559 14.7657 29.6088 14.7657" fill="#FDFBED"/>
<path d="M24.6891 18.3623C24.6891 17.845 24.3474 17.5031 23.9294 17.5031C23.5113 17.5031 23.1696 17.8494 23.1696 18.3623C23.1696 18.8751 23.5113 19.2258 23.9294 19.2258C24.3474 19.2258 24.6891 18.8927 24.6891 18.3623ZM17.3031 18.9365C17.3031 18.4938 16.993 18.165 16.6064 18.165C16.2198 18.165 15.9096 18.4982 15.9096 18.9365C15.9096 19.3748 16.2198 19.7123 16.6064 19.7123C16.993 19.7123 17.3031 19.388 17.3031 18.9365ZM24.8015 20.3917C24.325 20.3917 23.8934 20.6942 23.8934 21.1939C23.8934 21.6936 24.325 21.9916 24.8015 21.9916C25.278 21.9916 25.7095 21.6892 25.7095 21.1939C25.7095 20.6986 25.2825 20.3917 24.8015 20.3917ZM30.3893 17.6259V15.9558H29.0676V15.3027H27.1346V15.9558H19.0339V15.3027H17.1009V15.9558H12.0166V17.6259H13.545C12.4841 18.0774 11.8008 19.0636 11.8008 20.5057C11.8008 22.4387 13.6664 23.5389 15.1678 23.5389H20.7781V22.9516H22.365V23.5389H30.3848V21.8689H29.0631V17.6259H30.3848H30.3893ZM15.8421 17.0341H17.3796V17.4768H15.8421V17.0341ZM15.1768 18.9365C15.1768 18.5946 15.3791 18.2965 15.7118 18.0993H15.1678V17.6566H18.0539V18.0993H17.5099C17.8381 18.2965 18.0404 18.5946 18.0404 18.9365C18.0404 19.5282 17.4245 20.006 16.6109 20.006C15.7972 20.006 15.1813 19.5282 15.1813 18.9365M19.3665 22.2678H16.6738C16.1164 22.2678 15.7747 21.9522 15.7747 21.4393V20.418H16.6288V21.8251H19.3665V22.2678ZM19.9554 18.7568H19.3171V20.6328H18.5304V17.0298H19.3171V18.3141H19.9554V18.7568ZM22.3695 18.3623C22.3695 17.6785 23.0438 17.1218 23.9294 17.1218C24.815 17.1218 25.4893 17.6785 25.4893 18.3623C25.4893 19.0461 24.8195 19.6027 23.9294 19.6027C23.0393 19.6027 22.3695 19.0461 22.3695 18.3623ZM27.1616 18.1256H26.4962V18.7612H27.1616V19.2039H26.4962V21.1939C26.4917 21.8689 25.7455 22.4168 24.806 22.4168C23.8664 22.4168 23.1202 21.8689 23.1157 21.1939C23.1202 20.5189 23.8664 19.9709 24.806 19.9709C25.1431 19.9709 25.4533 20.0411 25.714 20.1638V17.0385H26.5007V17.6872H27.1661V18.13L27.1616 18.1256Z" fill="#FDFBED"/>
<path d="M21.2341 1.92204C10.2698 1.8782 1.34197 10.514 1.29701 21.2101C1.25655 31.9062 10.1125 40.6078 21.0768 40.6516C32.041 40.6954 40.9689 32.0596 41.0094 21.3635C41.0543 10.6674 32.1984 1.96588 21.2341 1.92204ZM39.4944 18.6194L37.9615 19.2112V19.2199L39.5933 19.3909L39.6473 20.0616L37.4535 19.5619L36.1139 19.7241L36.0285 19.0709L37.3456 18.9131L39.3775 17.918L39.4944 18.615V18.6194ZM37.9165 24.1647C37.912 24.6907 37.5659 25.1159 37.5659 25.1159C37.5659 25.1159 37.2287 24.6863 37.2332 24.1603C37.2422 23.6343 37.5839 23.2091 37.5839 23.2091C37.5839 23.2091 37.921 23.643 37.912 24.1647M36.9635 26.9439C36.9635 26.9439 36.3926 26.396 36.2038 25.6025C36.015 24.8091 36.2353 24.2567 36.2353 24.2567C36.2353 24.2567 36.8197 24.6951 37.0085 25.4886C37.1973 26.2776 36.9635 26.9439 36.9635 26.9439ZM35.7767 29.2848C35.7767 29.2848 35.3092 28.6492 35.2643 27.8382C35.2193 27.0272 35.534 26.5187 35.534 26.5187C35.534 26.5187 36.033 27.0491 36.0779 27.8601C36.1229 28.6755 35.7767 29.2892 35.7767 29.2892M39.1753 17.0062L38.5774 17.1859L38.4155 16.6029L35.6643 17.427L35.4665 16.8002L38.2177 15.976L38.0244 15.4105L38.6223 15.2352L39.1753 17.0106V17.0062ZM38.1368 14.056L34.9765 15.4938L34.6933 14.8977L37.8536 13.4642L38.1368 14.0604V14.056ZM21.0992 34.7994C13.4481 34.7687 7.2669 28.6974 7.29837 21.232C7.32984 13.7711 13.5605 7.74353 21.2116 7.76983C28.8628 7.80052 35.0395 13.8763 35.0125 21.3372C34.9855 28.7982 28.7549 34.8257 21.1037 34.795M31.4297 33.7693C31.1015 34.532 30.5081 34.9485 30.5081 34.9485C30.5081 34.9485 30.3688 34.1638 30.6924 33.3967C31.0206 32.6339 31.5376 32.3051 31.5376 32.3051C31.5376 32.3051 31.7578 33.0065 31.4297 33.7737M29.3483 35.0756C28.8538 35.7507 28.1795 36.0225 28.1795 36.0225C28.1795 36.0225 28.2245 35.2246 28.7189 34.554C29.2134 33.8833 29.7978 33.6772 29.7978 33.6772C29.7978 33.6772 29.8473 34.4093 29.3528 35.08M14.2573 36.0225C14.2573 36.0225 13.5784 35.7507 13.084 35.0756C12.5895 34.4049 12.6389 33.6728 12.6389 33.6728C12.6389 33.6728 13.2188 33.8789 13.7178 34.5496C14.2123 35.2246 14.2573 36.0181 14.2573 36.0181M11.9286 34.9485C11.9286 34.9485 11.3352 34.532 11.0071 33.7693C10.6789 33.0065 10.8992 32.3008 10.8992 32.3008C10.8992 32.3008 11.4207 32.6339 11.7443 33.3923C12.0725 34.1594 11.9286 34.9441 11.9286 34.9441M35.462 11.4258C35.9296 11.1321 36.5185 11.1935 36.9141 11.7853C37.0354 11.9694 37.1029 12.1798 37.1029 12.2981L36.5544 12.5173C36.5544 12.4077 36.5185 12.2543 36.4151 12.0921C36.2577 11.8554 36.0375 11.8335 35.8801 11.9343C35.7093 12.0439 35.6688 12.1842 35.6823 12.6138C35.6958 13.1354 35.4935 13.4598 35.1878 13.6527C34.6574 13.9859 34.0505 13.8237 33.6819 13.2669C33.5335 13.039 33.4436 12.776 33.4391 12.6488L33.9831 12.4209C33.9921 12.5743 34.073 12.7979 34.1809 12.9601C34.3517 13.2231 34.5765 13.2625 34.7653 13.1442C34.9765 13.0083 34.999 12.8198 34.999 12.4779C34.9855 11.9343 35.1968 11.5968 35.4576 11.4302M34.6978 8.94904C34.9496 9.21206 35.1204 9.49261 35.1249 9.79508C35.1294 10.0713 35.0035 10.2685 34.7832 10.4658C34.509 10.7113 34.1449 10.8033 33.7808 10.663H33.7718C33.8662 10.8998 33.7853 11.1321 33.556 11.4258C33.3177 11.7283 33.0525 12.1272 32.9986 12.2543L32.5355 11.7064C32.5805 11.6143 32.7828 11.325 33.0255 11.0357C33.2998 10.7025 33.3177 10.5447 33.1604 10.3825L33.093 10.3124L32.077 11.2329L31.596 10.7683L34.1629 8.44492C34.3157 8.58958 34.509 8.76931 34.6843 8.95342M32.9221 7.30955L32.558 7.7786L31.8927 7.28763L31.4117 7.91011L32.0455 8.37478L31.7084 8.81314L31.0745 8.34848L30.5081 9.07616L31.2229 9.6022L30.8633 10.0756L29.609 9.15507L31.7174 6.42844L32.9221 7.31393V7.30955ZM28.5481 4.70128L29.2269 4.99937L28.3638 7.55942H28.3728L29.9822 5.37636L30.6205 5.73582L28.3234 8.39231L27.658 8.05915L28.5481 4.70128ZM26.7635 4.0525L27.4018 4.26291L26.2735 7.49366L25.6351 7.27886L26.759 4.04811L26.7635 4.0525ZM23.2211 3.31604L23.8235 3.39056L24.3269 5.83226H24.3359L24.6686 3.52646L25.253 3.64482L24.6641 7.01584L24.0617 6.8931L23.5897 4.45579H23.5807L23.2256 6.74844L22.6322 6.68269L23.2211 3.31604ZM20.1912 3.22837L20.2676 5.43335C20.2856 5.9287 20.4474 6.07774 20.6182 6.06898C20.816 6.06459 20.9509 5.91993 20.9284 5.41143L20.8475 3.20645H21.5263L21.5982 5.27115C21.6297 6.13911 21.3105 6.62132 20.6407 6.64323C19.917 6.66954 19.6158 6.19172 19.5843 5.34129L19.5124 3.27221L20.1867 3.22399L20.1912 3.22837ZM15.8711 3.93414C16.1228 3.85523 16.3251 3.84646 16.442 3.864L16.5049 4.43826C16.3971 4.42511 16.2667 4.43826 16.1049 4.48209C15.6688 4.61799 15.4171 5.02128 15.6913 5.86294C15.9475 6.63885 16.3476 6.81858 16.6443 6.72214C16.7027 6.70461 16.7432 6.68707 16.7657 6.66954L16.5094 5.88925L16.2172 5.9813L16.0464 5.46842L16.9365 5.18786L17.5029 6.91064C17.3816 7.01146 17.0938 7.16489 16.8556 7.23941C16.478 7.35777 16.1588 7.34024 15.8666 7.19557C15.4935 7.01585 15.1833 6.58625 15.0125 6.02952C14.6439 4.8547 15.1698 4.15332 15.8666 3.93414M11.8118 5.67006L12.9491 6.58625C13.1694 6.76598 13.5335 7.06407 13.7628 7.27448H13.7717C13.5784 6.96762 13.2458 6.47666 12.9356 5.93308L12.558 5.26677L13.0884 5.00375L14.7922 7.99778L14.2393 8.2608L13.1199 7.3753C12.8772 7.17804 12.5265 6.87995 12.3062 6.64762H12.2973C12.4816 6.94571 12.7603 7.38846 13.1019 7.98463L13.4885 8.6641L12.9806 8.96657L11.2813 5.97692L11.8073 5.66568L11.8118 5.67006ZM9.53708 7.19996L12.3512 9.40055L11.8162 9.79508L11.1734 9.28219L10.6969 9.67234L11.106 10.3781L10.6205 10.8209L8.91672 7.70846L9.53258 7.19996H9.53708ZM6.80388 9.83892L7.60855 10.194C7.81984 10.2904 8.05809 10.4 8.28736 10.5272V10.5184C8.13002 10.3299 7.97268 10.1239 7.82433 9.92659L7.32534 9.24712L7.79736 8.75177L8.90323 10.6543L9.94616 11.5179L9.50561 12.0176L8.48516 11.1715L6.35883 10.3869L6.80388 9.8433V9.83892ZM4.87535 12.6225L7.41975 13.0127V13.0039L5.30691 11.8992L5.62159 11.4039L8.66947 13.1004L8.33231 13.6089L5.86883 13.2319L5.84186 13.2187L7.91424 14.3278L7.64452 14.8494L4.59214 13.1442L4.87535 12.6138V12.6225ZM3.74251 15.0818L7.31186 15.5508L7.0781 16.1514L6.27792 16.0418L6.07562 16.616L6.77691 17.0062L6.59259 17.6331L3.48627 15.8051L3.74251 15.0818ZM7.16801 27.8338C7.12305 28.6448 6.65553 29.2804 6.65553 29.2804C6.65553 29.2804 6.30938 28.6667 6.34984 27.8513C6.3948 27.0404 6.89379 26.5099 6.89379 26.5099C6.89379 26.5099 7.20846 27.0184 7.16351 27.8294M2.74453 19.2199L4.1471 19.3997L4.237 18.7202L2.82095 18.5405L2.94682 17.8873L6.42177 18.3301L6.30039 18.9832L4.86187 18.7991L4.77196 19.483L6.21048 19.6671L6.15654 20.3202L2.6816 19.8775L2.74453 19.2243V19.2199ZM6.23296 25.6069C6.04416 26.4004 5.47324 26.9483 5.47324 26.9483C5.47324 26.9483 5.23948 26.2864 5.42829 25.4929C5.61709 24.6995 6.20149 24.2611 6.20149 24.2611C6.20149 24.2611 6.42177 24.8135 6.23296 25.6069ZM5.19902 24.1559C5.20352 24.682 4.86636 25.1116 4.86636 25.1116C4.86636 25.1116 4.52021 24.6907 4.51572 24.1603C4.51122 23.6343 4.84838 23.2047 4.84838 23.2047C4.84838 23.2047 5.19452 23.6299 5.20352 24.1559M2.89738 24.5329C2.89738 24.5329 3.77847 24.6863 4.43031 25.4053C5.08214 26.1242 5.217 27.0448 5.217 27.0448C5.217 27.0448 4.29544 26.8037 3.64361 26.0847C2.99178 25.3658 2.89738 24.5329 2.89738 24.5329ZM3.68857 27.3604C3.68857 27.3604 4.58765 27.3604 5.35636 27.9566C6.12507 28.5571 6.42177 29.4426 6.42177 29.4426C6.42177 29.4426 5.46874 29.3593 4.70003 28.7588C3.93132 28.1626 3.68857 27.3604 3.68857 27.3604ZM8.25589 32.2964C8.17947 32.8049 7.84232 33.3704 7.53213 33.3265C7.22195 33.2827 7.06012 32.6471 7.13204 32.1386C7.1725 31.8931 7.25791 31.6827 7.37929 31.5292C7.19947 31.5994 6.96122 31.6213 6.71397 31.5862C6.1925 31.5117 5.6081 31.1829 5.65306 30.8804C5.69801 30.5824 6.34984 30.4245 6.8758 30.4947C7.12755 30.5298 7.34782 30.6174 7.50067 30.7314C7.43323 30.5561 7.40626 30.3237 7.44222 30.0826C7.51865 29.5741 7.8558 29.0042 8.16598 29.0481C8.47617 29.0919 8.638 29.7275 8.56158 30.2404C8.52562 30.4859 8.43571 30.6963 8.31883 30.8498C8.50314 30.7796 8.7369 30.7577 8.98864 30.7928C9.51011 30.8629 10.0945 31.1961 10.0496 31.4942C10.0046 31.7966 9.34827 31.9544 8.82681 31.8799C8.57506 31.8449 8.35929 31.7572 8.20195 31.6432C8.27387 31.8229 8.29635 32.0509 8.26039 32.2964M9.95066 35.2553C9.04708 35.0537 8.50314 34.4707 8.50314 34.4707C8.50314 34.4707 9.26736 34.1112 10.1709 34.3128C11.0745 34.5145 11.6994 35.1501 11.6994 35.1501C11.6994 35.1501 10.8542 35.457 9.95066 35.2553ZM12.4906 36.7677C11.605 36.7677 10.9711 36.3425 10.9711 36.3425C10.9711 36.3425 11.6005 35.8515 12.4861 35.8471C13.3717 35.8471 14.0909 36.303 14.0909 36.303C14.0909 36.303 13.3717 36.7677 12.4906 36.7677ZM17.3051 37.0789C17.0849 37.1841 16.8601 37.2324 16.6668 37.2236C16.8241 37.3288 16.9725 37.4998 17.0849 37.7146C17.3141 38.1661 17.3636 38.8061 17.0849 38.9376C16.8106 39.0735 16.3161 38.6439 16.0914 38.1924C15.979 37.9732 15.934 37.754 15.943 37.5699C15.8351 37.7233 15.6598 37.868 15.435 37.9776C14.972 38.2011 14.3157 38.245 14.1808 37.9776C14.046 37.7102 14.482 37.2324 14.9495 37.0088C15.1698 36.8992 15.3991 36.8554 15.5879 36.8641C15.4305 36.7545 15.2822 36.588 15.1698 36.3688C14.9406 35.9173 14.8956 35.2773 15.1698 35.1457C15.444 35.0142 15.934 35.4394 16.1633 35.8953C16.2712 36.1101 16.3206 36.3337 16.3116 36.5178C16.4195 36.3688 16.5949 36.2197 16.8196 36.1145C17.2827 35.891 17.9435 35.8471 18.0783 36.1145C18.2132 36.3819 17.7727 36.8641 17.3096 37.0833M21.1577 38.622C20.7711 38.622 20.4564 38.3151 20.4564 37.9381C20.4564 37.5611 20.7711 37.2543 21.1577 37.2543C21.5443 37.2543 21.859 37.5611 21.859 37.9381C21.859 38.3151 21.5443 38.622 21.1577 38.622ZM28.2559 37.982C28.1211 38.2494 27.4602 38.2011 27.0017 37.982C26.7769 37.8768 26.6016 37.7277 26.4937 37.5743C26.5027 37.7584 26.4533 37.982 26.3409 38.1968C26.1161 38.6483 25.6216 39.0735 25.3474 38.942C25.0732 38.8105 25.1226 38.1705 25.3474 37.7189C25.4553 37.5041 25.6081 37.3332 25.761 37.228C25.5677 37.2367 25.3429 37.1885 25.1226 37.0833C24.6596 36.8597 24.2191 36.3819 24.3584 36.1145C24.4933 35.8471 25.1496 35.8953 25.6126 36.1145C25.8329 36.2197 26.0127 36.3688 26.1206 36.5178C26.1116 36.3337 26.1611 36.1101 26.269 35.8953C26.4982 35.4438 26.9882 35.0142 27.2624 35.1457C27.5367 35.2773 27.4872 35.9173 27.2624 36.3688C27.1501 36.5836 27.0017 36.7545 26.8444 36.8641C27.0377 36.8554 27.2624 36.8992 27.4827 37.0088C27.9457 37.2324 28.3863 37.7146 28.2514 37.9776M29.9462 36.7677C29.0651 36.7677 28.3458 36.303 28.3458 36.303C28.3458 36.303 29.0651 35.8427 29.9507 35.8471C30.8363 35.8471 31.4656 36.3425 31.4656 36.3425C31.4656 36.3425 30.8318 36.7721 29.9462 36.7677ZM32.4861 35.2553C31.5825 35.457 30.7374 35.1501 30.7374 35.1501C30.7374 35.1501 31.3622 34.5145 32.2658 34.3128C33.1694 34.1112 33.9336 34.4707 33.9336 34.4707C33.9336 34.4707 33.3897 35.0537 32.4861 35.2553ZM35.7183 31.5862C35.471 31.6213 35.2328 31.5994 35.053 31.5292C35.1698 31.6827 35.2598 31.8931 35.2957 32.1386C35.3721 32.6471 35.2103 33.2871 34.9001 33.3265C34.5899 33.3704 34.2528 32.8049 34.1764 32.2964C34.1404 32.0509 34.1629 31.8229 34.2348 31.6432C34.0775 31.7572 33.8617 31.8449 33.6099 31.8799C33.084 31.9544 32.4322 31.7966 32.3872 31.4942C32.3422 31.1917 32.9266 30.8629 33.4481 30.7928C33.6999 30.7577 33.9336 30.7796 34.1179 30.8498C34.001 30.7007 33.9111 30.4859 33.8752 30.2404C33.7988 29.7319 33.9606 29.0919 34.2708 29.0481C34.581 29.0042 34.9181 29.5741 34.9945 30.0826C35.0305 30.3281 35.0035 30.5561 34.9361 30.7314C35.0889 30.6174 35.3092 30.5298 35.5609 30.4947C36.0824 30.4202 36.7387 30.578 36.7837 30.8804C36.8287 31.1829 36.2442 31.5117 35.7228 31.5862M37.7322 28.7588C36.9635 29.3549 36.0105 29.4426 36.0105 29.4426C36.0105 29.4426 36.3072 28.5571 37.0759 27.9566C37.8446 27.3604 38.7437 27.3604 38.7437 27.3604C38.7437 27.3604 38.5009 28.1626 37.7277 28.7588M38.7931 26.0803C38.1413 26.7993 37.2198 27.0404 37.2198 27.0404C37.2198 27.0404 37.3546 26.1198 38.0064 25.4009C38.6583 24.682 39.5439 24.5285 39.5439 24.5285C39.5439 24.5285 39.445 25.3614 38.7976 26.0803M15.8756 36.5573C15.6014 36.6888 15.4845 37.0176 15.6194 37.2893C15.7587 37.5611 16.0959 37.6707 16.3701 37.5348C16.6488 37.4033 16.7612 37.0746 16.6263 36.8071C16.4915 36.5354 16.1543 36.4258 15.8756 36.5573ZM8.41323 31.2662C8.45818 30.9637 8.24241 30.6788 7.92773 30.635C7.61754 30.5911 7.32534 30.8015 7.28039 31.1084C7.23544 31.4109 7.45122 31.6958 7.7614 31.7396C8.07158 31.7835 8.36378 31.5731 8.40874 31.2662M4.25499 15.6692V15.6823C4.45728 15.7875 4.78095 15.9497 4.96076 16.0462L5.60361 16.3881L5.76094 15.9322L5.03719 15.8095C4.8259 15.7788 4.48425 15.713 4.25499 15.6692ZM26.5567 36.5573C26.2779 36.4258 25.9453 36.5354 25.8059 36.8071C25.6711 37.0746 25.7835 37.4033 26.0622 37.5348C26.3364 37.6707 26.6735 37.5611 26.8129 37.2893C26.9478 37.0176 26.8354 36.6932 26.5567 36.5573ZM10.2339 8.45807C10.072 8.32217 9.8113 8.09422 9.64047 7.9408L9.62699 7.94956C9.74836 8.14683 9.94167 8.44492 10.0451 8.61588L10.4137 9.23397L10.7913 8.92273L10.2384 8.45368L10.2339 8.45807ZM34.5045 30.635C34.1943 30.6788 33.9741 30.9637 34.0235 31.2662C34.0685 31.5731 34.3562 31.7835 34.6709 31.7396C34.9855 31.6958 35.2013 31.4109 35.1564 31.1084C35.1114 30.8015 34.8237 30.5911 34.509 30.635M34.2753 10.023C34.491 9.82577 34.563 9.6022 34.3652 9.37863C34.3247 9.33918 34.2753 9.29096 34.2438 9.27781L33.4841 9.96604L33.565 10.0493C33.7628 10.2597 34.0505 10.2247 34.2753 10.023Z" fill="#FDFBED"/>
<path d="M18.3816 29.0041L18.4401 29.0348C18.4401 29.0348 18.4401 29.0699 18.4491 29.0962C18.4491 29.1181 18.4626 29.14 18.4716 29.1575C18.5031 29.2013 18.5436 29.2408 18.5976 29.2714C18.6515 29.3021 18.71 29.3328 18.7685 29.3503C18.827 29.3722 18.8899 29.3854 18.9529 29.3941C19.0159 29.4029 19.0744 29.4073 19.1239 29.4073C19.6142 29.4073 19.8751 29.1356 19.9066 28.601C19.7716 28.6711 19.6412 28.7325 19.5107 28.7851C19.3758 28.8376 19.2408 28.8595 19.0969 28.8595C18.9844 28.8595 18.8675 28.842 18.746 28.8157C18.629 28.7851 18.5166 28.7369 18.4221 28.6711C18.3277 28.6054 18.2467 28.5222 18.1882 28.4214C18.1252 28.3206 18.0938 28.1979 18.0938 28.0533C18.0938 27.8824 18.1297 27.7334 18.2017 27.6107C18.2692 27.4881 18.3636 27.3873 18.4761 27.3084C18.5886 27.2295 18.7145 27.1726 18.854 27.1331C18.9934 27.0937 19.1329 27.0762 19.2723 27.0762C19.4432 27.0762 19.6052 27.1068 19.7491 27.1682C19.8931 27.2295 20.0145 27.3216 20.118 27.4311C20.2214 27.545 20.3024 27.6809 20.3564 27.8342C20.4149 27.992 20.4419 28.1628 20.4419 28.3513C20.4419 28.5747 20.4104 28.7719 20.3429 28.9516C20.2799 29.1312 20.1854 29.2846 20.0685 29.4117C19.947 29.5387 19.8076 29.6351 19.6412 29.7052C19.4747 29.771 19.2903 29.806 19.0879 29.806C18.9484 29.806 18.827 29.7929 18.728 29.7753C18.629 29.7534 18.5436 29.7271 18.4806 29.6921C18.4131 29.6614 18.3591 29.6307 18.3187 29.6045C18.2782 29.5782 18.2422 29.565 18.2197 29.565C18.1882 29.565 18.1567 29.5782 18.1297 29.5957L18.0938 29.5606L18.3771 28.9998L18.3816 29.0041ZM19.0114 27.5406C18.9394 27.5538 18.8765 27.5801 18.818 27.6151C18.764 27.6502 18.7145 27.6984 18.683 27.7553C18.6515 27.8167 18.6335 27.8868 18.6335 27.9744C18.6335 28.0621 18.6515 28.1366 18.683 28.1979C18.7145 28.2592 18.764 28.3031 18.818 28.3381C18.8765 28.3732 18.9394 28.3995 19.0114 28.4126C19.0834 28.4258 19.1598 28.4345 19.2318 28.4345C19.3038 28.4345 19.3803 28.4258 19.4522 28.4126C19.5242 28.3951 19.5872 28.3732 19.6457 28.3381C19.7041 28.3031 19.7491 28.2549 19.7806 28.1979C19.8121 28.1366 19.8301 28.0665 19.8301 27.9744C19.8301 27.8824 19.8121 27.8123 19.7806 27.7553C19.7491 27.694 19.7041 27.6502 19.6457 27.6151C19.5872 27.5801 19.5242 27.5538 19.4522 27.5406C19.3803 27.5275 19.3083 27.5187 19.2318 27.5187C19.1553 27.5187 19.0834 27.5275 19.0114 27.5406Z" fill="#FDFBED"/>
<path d="M23.4947 29.0041L23.5531 29.0348C23.5531 29.0348 23.5531 29.0699 23.5621 29.0962C23.5621 29.1181 23.5756 29.14 23.5846 29.1575C23.6161 29.2013 23.6565 29.2408 23.7105 29.2714C23.7644 29.3021 23.8228 29.3328 23.8813 29.3503C23.9442 29.3722 24.0071 29.3854 24.0656 29.3941C24.1285 29.4029 24.1869 29.4073 24.2364 29.4073C24.7263 29.4073 24.987 29.1356 25.0185 28.601C24.8881 28.6711 24.7533 28.7325 24.6229 28.7851C24.4926 28.8376 24.3532 28.8595 24.2094 28.8595C24.097 28.8595 23.9802 28.842 23.8588 28.8157C23.7374 28.7851 23.6296 28.7369 23.5352 28.6711C23.4408 28.6054 23.3599 28.5222 23.2969 28.4214C23.2385 28.3206 23.207 28.1979 23.207 28.0533C23.207 27.8824 23.243 27.7334 23.3149 27.6107C23.3823 27.4881 23.4767 27.3873 23.5891 27.3084C23.7015 27.2295 23.8318 27.1726 23.9712 27.1331C24.1105 27.0937 24.2499 27.0762 24.3892 27.0762C24.5645 27.0762 24.7218 27.1068 24.8657 27.1682C25.0095 27.2295 25.1354 27.3216 25.2387 27.4311C25.3421 27.545 25.423 27.6809 25.477 27.8342C25.5354 27.992 25.5624 28.1628 25.5624 28.3513C25.5624 28.5747 25.5309 28.7719 25.4635 28.9516C25.4006 29.1312 25.3062 29.2846 25.1893 29.4117C25.0679 29.5387 24.9286 29.6351 24.7623 29.7052C24.596 29.771 24.4117 29.806 24.2094 29.806C24.0701 29.806 23.9487 29.7929 23.8498 29.7753C23.7509 29.7534 23.6655 29.7271 23.6026 29.6921C23.5352 29.6614 23.4857 29.6307 23.4453 29.6045C23.4048 29.5782 23.3688 29.565 23.3464 29.565C23.3149 29.565 23.2834 29.5782 23.2565 29.5957L23.2205 29.5606L23.5037 28.9998L23.4947 29.0041ZM24.124 27.5406C24.0521 27.5538 23.9847 27.5801 23.9307 27.6151C23.8768 27.6502 23.8318 27.6984 23.7959 27.7553C23.7644 27.8167 23.7464 27.8868 23.7464 27.9744C23.7464 28.0621 23.7644 28.1366 23.7959 28.1979C23.8273 28.2592 23.8768 28.3031 23.9307 28.3381C23.9891 28.3732 24.0521 28.3995 24.124 28.4126C24.1959 28.4258 24.2678 28.4345 24.3442 28.4345C24.4207 28.4345 24.4926 28.4258 24.5645 28.4126C24.6364 28.3951 24.7038 28.3732 24.7578 28.3381C24.8162 28.3031 24.8567 28.2549 24.8926 28.1979C24.9241 28.1366 24.9421 28.0665 24.9421 27.9744C24.9421 27.8824 24.9241 27.8123 24.8926 27.7553C24.8567 27.694 24.8162 27.6502 24.7578 27.6151C24.6993 27.5801 24.6364 27.5538 24.5645 27.5406C24.4926 27.5275 24.4207 27.5187 24.3442 27.5187C24.2678 27.5187 24.1959 27.5275 24.124 27.5406Z" fill="#FDFBED"/>
<path d="M20.6448 27.4749L20.7032 27.4311C20.7257 27.4486 20.7571 27.4574 20.7841 27.4574C20.8021 27.4574 20.8291 27.4399 20.874 27.4004C20.9145 27.361 20.9774 27.3172 21.0583 27.269C21.1392 27.2208 21.2426 27.177 21.373 27.1375C21.4988 27.0981 21.6561 27.0762 21.8359 27.0762C21.9573 27.0762 22.0787 27.0893 22.2045 27.1156C22.3304 27.1419 22.4382 27.1857 22.5416 27.2471C22.645 27.304 22.7304 27.3829 22.7933 27.4749C22.8563 27.5669 22.8877 27.6809 22.8877 27.8123C22.8877 27.935 22.8563 28.0489 22.7889 28.1497C22.7214 28.2549 22.6315 28.3206 22.5192 28.3469V28.3556C22.654 28.3863 22.7619 28.4564 22.8473 28.5572C22.9327 28.658 22.9776 28.7851 22.9776 28.9384C22.9776 29.1137 22.9372 29.2539 22.8563 29.3678C22.7754 29.4818 22.6765 29.5694 22.5596 29.6351C22.4427 29.7008 22.3079 29.7447 22.1686 29.7666C22.0292 29.7885 21.8944 29.8016 21.7685 29.8016C21.6247 29.8016 21.4943 29.7885 21.373 29.7578C21.2471 29.7315 21.1437 29.6965 21.0493 29.657C20.9549 29.6176 20.8785 29.5825 20.8156 29.5475C20.7527 29.5168 20.7077 29.4993 20.6852 29.4993C20.6717 29.4993 20.6583 29.4993 20.6448 29.5124C20.6358 29.5168 20.6223 29.5256 20.6088 29.53L20.5684 29.5168L20.8426 28.7851L20.8965 28.8113C20.8965 28.8113 20.892 28.8289 20.892 28.8464V28.8815C20.892 28.9603 20.928 29.0304 20.9954 29.0918C21.0628 29.1531 21.1437 29.2057 21.2426 29.2495C21.337 29.2933 21.4404 29.324 21.5438 29.3459C21.6516 29.3678 21.737 29.3766 21.809 29.3766C21.8674 29.3766 21.9348 29.3722 22.0112 29.3591C22.0876 29.3459 22.1596 29.324 22.227 29.2933C22.2944 29.2627 22.3484 29.2232 22.3978 29.1707C22.4427 29.1181 22.4697 29.048 22.4697 28.9603C22.4697 28.8727 22.4472 28.8113 22.4023 28.7632C22.3573 28.7106 22.3034 28.6755 22.236 28.6448C22.173 28.6186 22.1011 28.601 22.0292 28.5923C21.9573 28.5835 21.8944 28.5791 21.8404 28.5791C21.764 28.5791 21.7011 28.5879 21.6426 28.601C21.5887 28.6142 21.5527 28.6536 21.5348 28.715H21.4763V28.0226H21.5348C21.5393 28.0927 21.5752 28.1366 21.6337 28.1585C21.6966 28.1804 21.764 28.1935 21.8404 28.1935C21.8899 28.1935 21.9483 28.1935 22.0157 28.1804C22.0832 28.1716 22.1416 28.1541 22.2 28.1234C22.2585 28.0971 22.3079 28.0577 22.3484 28.0095C22.3888 27.9613 22.4113 27.8999 22.4113 27.8298C22.4113 27.7597 22.3933 27.7071 22.3573 27.6633C22.3214 27.6195 22.2764 27.5888 22.218 27.5669C22.1596 27.545 22.0966 27.5275 22.0247 27.5187C21.9528 27.51 21.8854 27.5056 21.8135 27.5056C21.7281 27.5056 21.6426 27.5143 21.5527 27.5406C21.4628 27.5582 21.3864 27.5845 21.31 27.6195C21.2381 27.6502 21.1797 27.6896 21.1302 27.7291C21.0808 27.7685 21.0583 27.8123 21.0583 27.8517C21.0583 27.8693 21.0583 27.8824 21.0583 27.8999C21.0583 27.9219 21.0673 27.9394 21.0718 27.9525L21.0313 27.9832L20.6538 27.4618L20.6448 27.4749Z" fill="#FDFBED"/>
<path d="M17.0015 29.7344C17.033 29.7344 17.06 29.7257 17.0825 29.7038C17.1049 29.6862 17.1184 29.6468 17.1184 29.5898V27.8853C17.096 27.8853 17.069 27.8853 17.042 27.8897C17.0105 27.8897 16.9835 27.8985 16.952 27.9072C16.925 27.916 16.898 27.9291 16.8755 27.9423C16.853 27.9598 16.8351 27.9773 16.8261 28.008H16.7676V27.3639H16.8261C16.8261 27.3946 16.8396 27.4165 16.8665 27.4252C16.898 27.4384 16.9205 27.4428 16.9475 27.4428C17.0015 27.4428 17.0465 27.4252 17.0825 27.3858C17.1184 27.3507 17.1364 27.3069 17.1364 27.2543C17.1364 27.2061 17.1274 27.1755 17.1049 27.1623C17.0825 27.1492 17.0555 27.136 17.024 27.1317V27.0703H17.7842V27.1317C17.7482 27.1404 17.7167 27.1536 17.6897 27.1667C17.6672 27.1842 17.6537 27.2105 17.6537 27.2456V29.5854C17.6537 29.6424 17.6672 29.6818 17.6897 29.6994C17.7167 29.7213 17.7437 29.73 17.7752 29.73V29.7914H16.997V29.73L17.0015 29.7344Z" fill="#FDFBED"/>
</g>
<defs>
<clipPath id="clip0_595_311">
<rect width="42.023" height="40.9784" fill="white" transform="translate(0.152344 0.792969)"/>
</clipPath>
</defs>
</svg>
