<svg width="29" height="29" viewBox="0 0 29 29" fill="none" xmlns="http://www.w3.org/2000/svg">
<path d="M5.27675 14.7179L8.00309 11.9915C8.54634 11.4483 9.42712 11.4483 9.97037 11.9915C10.5136 12.5348 10.5136 13.4156 9.97037 13.9588L7.24403 16.6852C5.86214 18.0671 5.86214 20.3076 7.24403 21.6894C8.62593 23.0713 10.8664 23.0713 12.2483 21.6894L14.9747 18.9631C15.5179 18.4199 16.3987 18.4199 16.9419 18.9631C17.4852 19.5064 17.4852 20.3871 16.9419 20.9304L14.2156 23.6567C11.7472 26.1251 7.74514 26.1251 5.27675 23.6567C2.80835 21.1883 2.80835 17.1863 5.27675 14.7179ZM19.1161 14.8216L21.8425 12.0953C23.2244 10.7134 23.2244 8.4729 21.8425 7.091C20.4606 5.70911 18.2201 5.70911 16.8382 7.091L14.1119 9.81735C13.5686 10.3606 12.6878 10.3606 12.1446 9.81735C11.6013 9.27409 11.6013 8.39331 12.1446 7.85006L14.8709 5.12372C17.3393 2.65533 21.3414 2.65533 23.8098 5.12372C26.2781 7.59211 26.2781 11.5942 23.8098 14.0626L21.0834 16.7889C20.5402 17.3322 19.6594 17.3322 19.1161 16.7889C18.5729 16.2457 18.5729 15.3649 19.1161 14.8216Z" fill="white"/>
<path d="M17.3687 9.58886C17.9172 9.04036 18.8022 9.03609 19.3455 9.57935C19.8887 10.1226 19.8844 11.0076 19.3359 11.5561L11.6095 19.2826C11.061 19.8311 10.1759 19.8354 9.63269 19.2921C9.08944 18.7489 9.0937 17.8638 9.64221 17.3153L17.3687 9.58886Z" fill="white"/>
</svg>
