<svg width="47" height="55" viewBox="0 0 47 55" fill="none" xmlns="http://www.w3.org/2000/svg">
<g opacity="0.2">
<path d="M40.9285 32.0723C43.7448 32.0723 46.0279 29.8822 46.0279 27.1806C46.0279 24.479 43.7448 22.2889 40.9285 22.2889C38.1122 22.2889 35.8291 24.479 35.8291 27.1806C35.8291 29.8822 38.1122 32.0723 40.9285 32.0723Z" fill="#084458" stroke="#084458" stroke-width="0.170365" stroke-miterlimit="10"/>
<path d="M6.13356 21.007C8.94987 21.007 11.2329 18.8169 11.2329 16.1153C11.2329 13.4137 8.94987 11.2236 6.13356 11.2236C3.31725 11.2236 1.03418 13.4137 1.03418 16.1153C1.03418 18.8169 3.31725 21.007 6.13356 21.007Z" fill="#084458" stroke="#084458" stroke-width="0.170365" stroke-miterlimit="10"/>
<path d="M6.157 54.1738C8.97331 54.1738 11.2564 51.9838 11.2564 49.2822C11.2564 46.5806 8.97331 44.3905 6.157 44.3905C3.34069 44.3905 1.05762 46.5806 1.05762 49.2822C1.05762 51.9838 3.34069 54.1738 6.157 54.1738Z" fill="#084458" stroke="#084458" stroke-width="0.170365" stroke-miterlimit="10"/>
<path d="M17.7341 9.95716C20.5505 9.95716 22.8335 7.76709 22.8335 5.06549C22.8335 2.3639 20.5505 0.173828 17.7341 0.173828C14.9178 0.173828 12.6348 2.3639 12.6348 5.06549C12.6348 7.76709 14.9178 9.95716 17.7341 9.95716Z" fill="#084458" stroke="#084458" stroke-width="0.170365" stroke-miterlimit="10"/>
</g>
<path d="M6.10156 0.178223C6.1184 0.1769 10.3147 -0.146953 11.9463 5.04346C13.5813 10.244 17.708 9.96143 17.708 9.96143C17.7361 9.96262 21.9174 10.1312 23.5469 5.04346C24.9776 0.575744 28.321 0.201899 29.1338 0.178223L40.9209 0.178223C40.9692 0.178687 46.0195 0.23881 46.0195 5.06982L46.0195 16.1226C46.0195 16.1226 46.202 20.0807 40.9082 21.605C36.7145 22.813 35.9728 25.603 35.8457 26.7104C35.8102 27.0198 35.7977 27.3329 35.8252 27.6431C35.9169 28.6765 36.6008 31.182 40.9082 32.6714L41.4092 32.855C46.4101 34.807 46.0195 38.228 46.0195 38.228C46.0195 40.3191 44.5225 41.6899 44.5225 41.6899L32.9121 52.7466C31.4653 54.1863 29.3409 54.1726 29.3145 54.1724L17.708 54.1724C15.4503 54.1724 14.1094 52.7466 14.1094 52.7466C11.2897 49.6406 11.6349 45.3979 6.10742 43.7378C0.610696 42.0875 1.01587 38.2711 1.02051 38.229L1.01465 27.1753C1.01333 27.1263 0.924319 23.2073 6.14648 21.6421C11.4016 20.067 11.207 16.1226 11.207 16.1226C11.2095 16.0846 11.4538 12.084 6.10742 10.6138C0.735805 9.13651 1.00195 5.06982 1.00195 5.06982C1.28071 0.140894 6.10156 0.178223 6.10156 0.178223ZM17.5449 33.2964L17.5449 33.2983C14.7679 33.3519 12.5334 35.5287 12.5332 38.2065C12.5334 40.8844 14.768 43.0593 17.5449 43.1128L17.5449 43.1157L29.3135 43.1157L29.3135 43.1147C32.1277 43.1023 34.405 40.9103 34.4053 38.2065C34.4051 35.5028 32.1277 33.3088 29.3135 33.2964L17.5449 33.2964ZM17.5449 11.1675C14.7679 11.2211 12.5334 13.4012 12.5332 16.0835C12.5332 18.7659 14.7678 20.9449 17.5449 20.9985L17.5449 21.0015L29.3135 21.0015L29.3135 21.0005C32.1278 20.988 34.4052 18.7919 34.4053 16.0835C34.405 13.3753 32.1277 11.178 29.3135 11.1655L17.5449 11.1655L17.5449 11.1675Z" fill="#084458"/>
</svg>
