<svg width="220" height="271" viewBox="0 0 220 271" fill="none" xmlns="http://www.w3.org/2000/svg">
<g opacity="0.2">
<mask id="path-1-outside-1_288_4796" maskUnits="userSpaceOnUse" x="-0.87793" y="-0.359863" width="221" height="272" fill="black">
<rect fill="white" x="-0.87793" y="-0.359863" width="221" height="272"/>
<path d="M24.8838 0.661621C24.9293 0.657915 44.6954 -0.938598 52.874 23.7964L53.6357 26.1948C61.7936 50.9123 81.1333 49.604 81.2178 49.5981C81.2178 49.5981 100.991 50.5031 109.178 26.1733L109.939 23.8179C118.116 -0.503843 137.553 0.661621 137.553 0.661621H193.887C193.905 0.661763 218.638 0.857966 218.638 25.1304V80.4165C218.638 80.4165 219.522 100.216 193.826 107.84C173.322 113.927 169.82 128.041 169.241 133.497C169.085 134.967 169.031 136.445 169.147 137.918C169.551 143.01 172.751 155.685 193.824 163.194L193.826 163.192L193.828 163.191C220.601 172.735 218.646 190.912 218.638 190.987C218.638 201.435 211.387 208.29 211.371 208.305L155.018 263.611C147.975 270.833 137.624 270.743 137.553 270.743H81.2178C70.2912 270.743 63.7906 263.652 63.7529 263.611C50.0661 248.074 51.7434 226.853 24.9141 218.548C-1.91541 210.248 0.223633 190.991 0.223633 190.991L0.193359 135.704C0.19101 135.622 -0.351278 115.889 25.1025 108.027C50.6094 100.148 49.665 80.4165 49.665 80.4165C49.6721 80.3063 50.9159 60.2286 24.9141 52.8599C-1.09987 45.4878 0.12705 25.2233 0.132812 25.1304C1.48562 0.475391 24.8838 0.661621 24.8838 0.661621ZM88.6025 185.328V185.334C73.7569 185.648 61.8185 197.781 61.8184 212.702C61.8184 227.623 73.7569 239.754 88.6025 240.068V240.076H151.574V240.074C166.639 240.011 178.832 227.781 178.832 212.702C178.832 197.622 166.639 185.391 151.574 185.329V185.328H88.6025ZM88.6094 61.9771C73.7622 62.2899 61.8223 74.4425 61.8223 89.3892C61.8226 104.336 73.7624 116.487 88.6094 116.8V116.808H151.582V116.806C166.644 116.741 178.836 104.492 178.836 89.3892C178.836 74.2864 166.645 62.0354 151.582 61.9702V61.9692H88.6094V61.9771Z"/>
</mask>
<path d="M24.8838 0.661621C24.9293 0.657915 44.6954 -0.938598 52.874 23.7964L53.6357 26.1948C61.7936 50.9123 81.1333 49.604 81.2178 49.5981C81.2178 49.5981 100.991 50.5031 109.178 26.1733L109.939 23.8179C118.116 -0.503843 137.553 0.661621 137.553 0.661621H193.887C193.905 0.661763 218.638 0.857966 218.638 25.1304V80.4165C218.638 80.4165 219.522 100.216 193.826 107.84C173.322 113.927 169.82 128.041 169.241 133.497C169.085 134.967 169.031 136.445 169.147 137.918C169.551 143.01 172.751 155.685 193.824 163.194L193.826 163.192L193.828 163.191C220.601 172.735 218.646 190.912 218.638 190.987C218.638 201.435 211.387 208.29 211.371 208.305L155.018 263.611C147.975 270.833 137.624 270.743 137.553 270.743H81.2178C70.2912 270.743 63.7906 263.652 63.7529 263.611C50.0661 248.074 51.7434 226.853 24.9141 218.548C-1.91541 210.248 0.223633 190.991 0.223633 190.991L0.193359 135.704C0.19101 135.622 -0.351278 115.889 25.1025 108.027C50.6094 100.148 49.665 80.4165 49.665 80.4165C49.6721 80.3063 50.9159 60.2286 24.9141 52.8599C-1.09987 45.4878 0.12705 25.2233 0.132812 25.1304C1.48562 0.475391 24.8838 0.661621 24.8838 0.661621ZM88.6025 185.328V185.334C73.7569 185.648 61.8185 197.781 61.8184 212.702C61.8184 227.623 73.7569 239.754 88.6025 240.068V240.076H151.574V240.074C166.639 240.011 178.832 227.781 178.832 212.702C178.832 197.622 166.639 185.391 151.574 185.329V185.328H88.6025ZM88.6094 61.9771C73.7622 62.2899 61.8223 74.4425 61.8223 89.3892C61.8226 104.336 73.7624 116.487 88.6094 116.8V116.808H151.582V116.806C166.644 116.741 178.836 104.492 178.836 89.3892C178.836 74.2864 166.645 62.0354 151.582 61.9702V61.9692H88.6094V61.9771Z" fill="#09A3B7"/>
<path d="M24.8838 0.661621L24.88 1.13939L24.9013 1.13956L24.9226 1.13783L24.8838 0.661621ZM52.874 23.7964L53.3294 23.6518L53.3277 23.6464L52.874 23.7964ZM53.6357 26.1948L53.1803 26.3395L53.182 26.3446L53.6357 26.1948ZM81.2178 49.5981L81.2396 49.1209L81.2122 49.1196L81.1848 49.1215L81.2178 49.5981ZM109.178 26.1733L109.631 26.3257L109.632 26.3204L109.178 26.1733ZM109.939 23.8179L109.487 23.6656L109.485 23.6709L109.939 23.8179ZM137.553 0.661621L137.524 1.13855L137.538 1.13941H137.553V0.661621ZM193.887 0.661621L193.89 0.183833H193.887V0.661621ZM218.638 80.4165H218.16V80.4272L218.16 80.4378L218.638 80.4165ZM193.826 107.84L193.69 107.382L193.69 107.382L193.826 107.84ZM169.241 133.497L168.766 133.446L169.241 133.497ZM169.147 137.918L168.671 137.956V137.956L169.147 137.918ZM193.824 163.194L193.664 163.644L193.948 163.745L194.162 163.532L193.824 163.194ZM193.826 163.192L193.613 162.765L193.543 162.799L193.488 162.854L193.826 163.192ZM193.828 163.191L193.989 162.741L193.797 162.672L193.614 162.764L193.828 163.191ZM218.638 190.987L218.163 190.935L218.16 190.961V190.987H218.638ZM211.371 208.305L211.043 207.958L211.036 207.964L211.371 208.305ZM155.018 263.611L154.683 263.27L154.675 263.277L155.018 263.611ZM137.553 270.743L137.557 270.265H137.553V270.743ZM81.2178 270.743L81.2178 271.22H81.2178V270.743ZM63.7529 263.611L63.3944 263.927L63.4004 263.933L63.7529 263.611ZM24.9141 218.548L25.0553 218.092L25.0553 218.092L24.9141 218.548ZM0.223633 190.991L0.6985 191.043L0.701435 191.017L0.70142 190.99L0.223633 190.991ZM0.193359 135.704L0.671338 135.703L0.670949 135.69L0.193359 135.704ZM25.1025 108.027L24.9615 107.57H24.9615L25.1025 108.027ZM49.665 80.4165L49.1882 80.3861L49.1865 80.4127L49.1878 80.4393L49.665 80.4165ZM24.9141 52.8599L25.0443 52.4002H25.0443L24.9141 52.8599ZM0.132812 25.1304L0.609696 25.16L0.609883 25.1565L0.132812 25.1304ZM88.6025 185.328V184.85H88.1247V185.328H88.6025ZM88.6025 185.334L88.6126 185.812L89.0803 185.802V185.334H88.6025ZM61.8184 212.702H61.3406H61.8184ZM88.6025 240.068H89.0803V239.6L88.6126 239.59L88.6025 240.068ZM88.6025 240.076H88.1247V240.553H88.6025V240.076ZM151.574 240.076V240.553H152.052V240.076H151.574ZM151.574 240.074L151.572 239.596L151.096 239.598V240.074H151.574ZM178.832 212.702H179.31H178.832ZM151.574 185.329H151.096V185.804L151.572 185.806L151.574 185.329ZM151.574 185.328H152.052V184.85H151.574V185.328ZM88.6094 61.9771L88.6194 62.4547L89.0872 62.4449V61.9771H88.6094ZM61.8223 89.3892H61.3445V89.3892L61.8223 89.3892ZM88.6094 116.8H89.0872V116.332L88.6194 116.323L88.6094 116.8ZM88.6094 116.808H88.1316V117.286H88.6094V116.808ZM151.582 116.808V117.286H152.06V116.808H151.582ZM151.582 116.806L151.58 116.328L151.104 116.33V116.806H151.582ZM178.836 89.3892L179.314 89.3892V89.3892H178.836ZM151.582 61.9702H151.104V62.4459L151.58 62.448L151.582 61.9702ZM151.582 61.9692H152.06V61.4915H151.582V61.9692ZM88.6094 61.9692V61.4915H88.1316V61.9692H88.6094ZM24.8838 0.661621L24.9226 1.13783C24.9029 1.13943 29.7651 0.741319 35.6325 3.38754C41.4807 6.0251 48.3733 11.7065 52.4204 23.9464L52.874 23.7964L53.3277 23.6464C49.1961 11.1513 42.1163 5.26345 36.0254 2.51645C29.9537 -0.221892 24.9101 0.180102 24.845 0.185413L24.8838 0.661621ZM52.874 23.7964L52.4186 23.941L53.1804 26.3394L53.6357 26.1948L54.0911 26.0502L53.3294 23.6518L52.874 23.7964ZM53.6357 26.1948L53.182 26.3446C57.3018 38.827 64.2661 44.7819 70.2507 47.6C76.2174 50.4097 81.1645 50.0807 81.2507 50.0748L81.2178 49.5981L81.1848 49.1215C81.1865 49.1214 76.4215 49.4495 70.6578 46.7355C64.912 44.0298 58.1276 38.2802 54.0895 26.0451L53.6357 26.1948ZM81.2178 49.5981C81.1959 50.0754 81.1963 50.0755 81.1967 50.0755C81.197 50.0755 81.1975 50.0755 81.198 50.0755C81.199 50.0756 81.2003 50.0756 81.2019 50.0757C81.2051 50.0758 81.2094 50.076 81.215 50.0762C81.2261 50.0766 81.242 50.0771 81.2624 50.0776C81.3034 50.0787 81.3627 50.0798 81.4396 50.0802C81.5933 50.0809 81.8169 50.0786 82.1029 50.0669C82.6747 50.0435 83.4962 49.9824 84.5056 49.832C86.5239 49.5312 89.2979 48.8727 92.3314 47.4415C98.4119 44.5728 105.494 38.6177 109.631 26.3257L109.178 26.1733L108.725 26.021C104.674 38.0588 97.7764 43.816 91.9237 46.5773C88.9906 47.9611 86.3097 48.597 84.3648 48.8868C83.3926 49.0317 82.6053 49.09 82.0638 49.1121C81.7931 49.1232 81.584 49.1252 81.4441 49.1246C81.3741 49.1243 81.3214 49.1233 81.287 49.1224C81.2698 49.1219 81.2572 49.1215 81.2493 49.1212C81.2453 49.1211 81.2425 49.121 81.2409 49.1209C81.2401 49.1209 81.2396 49.1209 81.2394 49.1208C81.2393 49.1208 81.2393 49.1208 81.2393 49.1208C81.2394 49.1208 81.2396 49.1209 81.2178 49.5981ZM109.178 26.1733L109.632 26.3204L110.394 23.9649L109.939 23.8179L109.485 23.6709L108.723 26.0263L109.178 26.1733ZM109.939 23.8179L110.392 23.9701C114.438 11.9348 121.25 6.24622 127.015 3.55195C129.904 2.20151 132.541 1.59834 134.454 1.33279C135.41 1.20006 136.183 1.15183 136.715 1.13664C136.981 1.12904 137.187 1.12971 137.324 1.13218C137.393 1.13342 137.444 1.1351 137.478 1.13644C137.495 1.1371 137.507 1.13768 137.515 1.13806C137.519 1.13826 137.521 1.1384 137.523 1.13849C137.524 1.13853 137.524 1.13856 137.524 1.13857C137.525 1.13858 137.524 1.13857 137.525 1.13857C137.524 1.13857 137.524 1.13855 137.553 0.661621C137.581 0.18469 137.581 0.184668 137.581 0.184642C137.58 0.184627 137.58 0.184597 137.579 0.184568C137.578 0.184512 137.577 0.184439 137.575 0.184352C137.572 0.184179 137.568 0.183949 137.562 0.183674C137.551 0.183126 137.536 0.182402 137.516 0.181605C137.475 0.18001 137.417 0.178122 137.341 0.17676C137.19 0.174036 136.969 0.173413 136.688 0.181453C136.125 0.197531 135.316 0.248268 134.322 0.386297C132.335 0.662281 129.602 1.28785 126.61 2.68626C120.612 5.48969 113.617 11.3792 109.487 23.6656L109.939 23.8179ZM137.553 0.661621V1.13941H193.887V0.661621V0.183833H137.553V0.661621ZM193.887 0.661621L193.883 1.13939C193.868 1.13928 199.968 1.1872 206.056 4.22151C209.093 5.73544 212.114 7.98637 214.377 11.3347C216.637 14.6797 218.16 19.1478 218.16 25.1304H218.638H219.115C219.115 18.9768 217.546 14.3182 215.169 10.7997C212.794 7.28468 209.63 4.93548 206.482 3.36629C200.199 0.234356 193.924 0.184104 193.89 0.183848L193.887 0.661621ZM218.638 25.1304H218.16V80.4165H218.638H219.115V25.1304H218.638ZM218.638 80.4165C218.16 80.4378 218.16 80.4376 218.16 80.4374C218.16 80.4375 218.16 80.4374 218.16 80.4375C218.16 80.4377 218.16 80.4382 218.16 80.439C218.16 80.4405 218.161 80.4433 218.161 80.4472C218.161 80.4551 218.161 80.4677 218.162 80.4848C218.163 80.5191 218.163 80.5716 218.164 80.6414C218.164 80.781 218.161 80.9898 218.148 81.2598C218.123 81.8001 218.059 82.5852 217.903 83.5532C217.59 85.4897 216.911 88.154 215.442 91.0533C212.511 96.8374 206.414 103.607 193.69 107.382L193.826 107.84L193.962 108.298C206.934 104.449 213.243 97.507 216.294 91.4852C217.816 88.4817 218.521 85.7196 218.846 83.7054C219.009 82.6981 219.076 81.8768 219.103 81.3045C219.116 81.0183 219.119 80.7942 219.119 80.6401C219.119 80.563 219.118 80.5034 219.117 80.4623C219.117 80.4417 219.116 80.4257 219.116 80.4145C219.116 80.4089 219.115 80.4045 219.115 80.4013C219.115 80.3996 219.115 80.3983 219.115 80.3973C219.115 80.3968 219.115 80.3963 219.115 80.396C219.115 80.3956 219.115 80.3952 218.638 80.4165ZM193.826 107.84L193.69 107.382C183.342 110.454 177.248 115.566 173.671 120.63C170.1 125.686 169.061 130.664 168.766 133.446L169.241 133.497L169.716 133.547C170 130.874 171.001 126.067 174.452 121.181C177.897 116.302 183.807 111.313 193.962 108.298L193.826 107.84ZM169.241 133.497L168.766 133.446C168.608 134.938 168.552 136.446 168.671 137.956L169.147 137.918L169.624 137.881C169.51 136.443 169.563 134.996 169.716 133.547L169.241 133.497ZM169.147 137.918L168.671 137.956C168.878 140.57 169.801 145.102 173.349 149.932C176.899 154.764 183.051 159.862 193.664 163.644L193.824 163.194L193.985 162.744C183.523 159.016 177.539 154.022 174.12 149.367C170.698 144.709 169.82 140.358 169.624 137.881L169.147 137.918ZM193.824 163.194L194.162 163.532L194.164 163.53L193.826 163.192L193.488 162.854L193.486 162.856L193.824 163.194ZM193.826 163.192L194.04 163.619L194.042 163.618L193.828 163.191L193.614 162.764L193.613 162.765L193.826 163.192ZM193.828 163.191L193.668 163.641C206.951 168.376 213.052 175.229 215.848 180.853C218.65 186.49 218.161 190.952 218.163 190.935L218.638 190.987L219.113 191.039C219.123 190.948 219.615 186.284 216.704 180.427C213.785 174.557 207.477 167.549 193.989 162.741L193.828 163.191ZM218.638 190.987H218.16C218.16 201.225 211.042 207.959 211.043 207.958L211.371 208.305L211.699 208.652C211.733 208.62 219.115 201.644 219.115 190.987H218.638ZM211.371 208.305L211.036 207.964L154.683 263.27L155.018 263.611L155.352 263.952L211.706 208.646L211.371 208.305ZM155.018 263.611L154.675 263.277C151.237 266.804 146.979 268.555 143.554 269.422C140.13 270.289 137.568 270.265 137.557 270.265L137.553 270.743L137.548 271.22C137.608 271.221 140.258 271.242 143.788 270.348C147.317 269.455 151.757 267.64 155.36 263.944L155.018 263.611ZM137.553 270.743V270.265H81.2178V270.743V271.22H137.553V270.743ZM81.2178 270.743L81.2178 270.265C75.8607 270.265 71.5875 268.527 68.6459 266.781C65.7027 265.035 64.1038 263.287 64.1055 263.288L63.7529 263.611L63.4004 263.933C63.4643 264.003 70.0848 271.22 81.2178 271.22L81.2178 270.743ZM63.7529 263.611L64.1114 263.295C60.7284 259.455 58.2882 255.256 56.1091 250.967C53.9415 246.7 52.0051 242.283 49.6787 238.134C44.99 229.771 38.6155 222.289 25.0553 218.092L24.9141 218.548L24.7728 219.005C38.0421 223.112 44.2436 230.393 48.8452 238.601C51.1641 242.737 53.0515 247.058 55.2572 251.4C57.4513 255.719 59.9341 259.999 63.3944 263.927L63.7529 263.611ZM24.9141 218.548L25.0553 218.092C11.7559 213.977 5.69454 207.171 2.93825 201.449C1.55621 198.58 0.997196 195.968 0.783384 194.076C0.676495 193.13 0.655988 192.365 0.66188 191.84C0.664825 191.577 0.674366 191.375 0.682981 191.239C0.687288 191.172 0.691363 191.121 0.694264 191.088C0.695714 191.072 0.696871 191.06 0.697616 191.052C0.697989 191.048 0.698259 191.046 0.698411 191.044C0.698487 191.044 0.698534 191.043 0.698549 191.043C0.698557 191.043 0.698545 191.043 0.698549 191.043C0.698528 191.043 0.6985 191.043 0.223633 190.991C-0.251234 190.938 -0.251279 190.938 -0.251332 190.939C-0.25136 190.939 -0.25142 190.94 -0.251476 190.94C-0.251587 190.941 -0.251729 190.943 -0.251899 190.944C-0.252239 190.947 -0.252694 190.952 -0.253247 190.957C-0.254353 190.968 -0.255855 190.984 -0.257633 191.004C-0.261189 191.045 -0.265851 191.103 -0.27066 191.179C-0.280278 191.33 -0.290493 191.549 -0.293635 191.829C-0.29992 192.389 -0.277934 193.194 -0.166147 194.183C0.057392 196.161 0.640464 198.881 2.07735 201.864C4.9589 207.846 11.2427 214.819 24.7728 219.005L24.9141 218.548ZM0.223633 190.991L0.70142 190.99L0.671147 135.703L0.193359 135.704L-0.284428 135.704L-0.254155 190.991L0.223633 190.991ZM0.193359 135.704L0.670949 135.69C0.671056 135.694 0.531413 130.829 3.52683 125.001C6.51383 119.19 12.6392 112.377 25.2435 108.483L25.1025 108.027L24.9615 107.57C12.112 111.539 5.78167 118.524 2.67694 124.565C-0.419362 130.589 -0.286686 135.632 -0.28423 135.717L0.193359 135.704ZM25.1025 108.027L25.2435 108.483C38.1204 104.506 44.3653 97.5164 47.3764 91.4806C48.8784 88.4698 49.57 85.7085 49.8861 83.6969C50.0441 82.6908 50.1085 81.8713 50.1331 81.3004C50.1455 81.0149 50.1479 80.7914 50.1472 80.6378C50.1468 80.5609 50.1457 80.5015 50.1446 80.4605C50.144 80.44 50.1435 80.4241 50.1431 80.4129C50.1429 80.4073 50.1427 80.4029 50.1426 80.3997C50.1425 80.3981 50.1424 80.3968 50.1424 80.3958C50.1424 80.3953 50.1423 80.3948 50.1423 80.3945C50.1423 80.394 50.1423 80.3937 49.665 80.4165C49.1878 80.4393 49.1878 80.4391 49.1878 80.439C49.1878 80.439 49.1878 80.4389 49.1878 80.439C49.1878 80.4392 49.1878 80.4397 49.1878 80.4405C49.1879 80.4421 49.188 80.4448 49.1882 80.4487C49.1885 80.4566 49.1889 80.4691 49.1894 80.4862C49.1903 80.5203 49.1913 80.5727 49.1916 80.6423C49.1923 80.7815 49.1901 80.9897 49.1785 81.2591C49.1552 81.7981 49.094 82.5816 48.9421 83.5486C48.6381 85.4829 47.9716 88.1469 46.5213 91.054C43.6279 96.8538 37.5915 103.669 24.9615 107.57L25.1025 108.027ZM49.665 80.4165L50.1419 80.4469C50.1482 80.3482 50.4611 75.2071 47.4713 69.1487C44.4718 63.0704 38.1723 56.1206 25.0443 52.4002L24.9141 52.8599L24.7838 53.3195C37.6577 56.9679 43.7372 63.7413 46.6144 69.5716C49.5014 75.4217 49.189 80.3746 49.1882 80.3861L49.665 80.4165ZM24.9141 52.8599L25.0443 52.4002C12.1657 48.7505 6.07862 41.9306 3.19497 36.0549C1.74914 33.1089 1.10224 30.3868 0.817199 28.3978C0.532151 26.4087 0.609788 25.1583 0.609683 25.16L0.132812 25.1304L-0.344058 25.1008C-0.349612 25.1903 -0.657981 30.3731 2.33714 36.4759C5.34207 42.5987 11.6485 49.5971 24.7838 53.3195L24.9141 52.8599ZM0.132812 25.1304L0.609883 25.1565C1.27592 13.0181 7.3477 7.04392 13.2308 4.07699C16.1854 2.58692 19.1031 1.85141 21.285 1.48909C22.3749 1.30809 23.2786 1.22066 23.9077 1.17849C24.2222 1.15741 24.4679 1.14766 24.6336 1.14316C24.7165 1.14091 24.7794 1.13998 24.8209 1.13961C24.8417 1.13942 24.8571 1.13937 24.867 1.13937C24.872 1.13937 24.8755 1.13937 24.8777 1.13938C24.8788 1.13939 24.8795 1.13939 24.8799 1.13939C24.8801 1.13939 24.8801 1.13939 24.8802 1.1394C24.8801 1.13939 24.88 1.13939 24.8838 0.661621C24.8876 0.183849 24.8873 0.183846 24.8868 0.183843C24.8866 0.183841 24.8861 0.183838 24.8855 0.183835C24.8845 0.183829 24.8831 0.183821 24.8813 0.183815C24.8778 0.183801 24.8729 0.18379 24.8666 0.183793C24.854 0.183798 24.8359 0.183858 24.8123 0.184071C24.7652 0.184496 24.6966 0.185529 24.6077 0.187937C24.4301 0.192753 24.1718 0.203073 23.8438 0.225055C23.1881 0.26901 22.2532 0.35965 21.1284 0.546424C18.8809 0.919652 15.8645 1.67853 12.8005 3.22377C6.64622 6.32747 0.342518 12.5877 -0.344258 25.1042L0.132812 25.1304ZM88.6025 185.328H88.1247V185.334H88.6025H89.0803V185.328H88.6025ZM88.6025 185.334L88.5924 184.857C73.4875 185.176 61.3407 197.52 61.3406 212.702H61.8184H62.2961C62.2963 198.041 74.0263 186.121 88.6126 185.812L88.6025 185.334ZM61.8184 212.702H61.3406C61.3406 227.883 73.4875 240.226 88.5924 240.546L88.6025 240.068L88.6126 239.59C74.0263 239.282 62.2962 227.362 62.2961 212.702H61.8184ZM88.6025 240.068H88.1247V240.076H88.6025H89.0803V240.068H88.6025ZM88.6025 240.076V240.553H151.574V240.076V239.598H88.6025V240.076ZM151.574 240.076H152.052V240.074H151.574H151.096V240.076H151.574ZM151.574 240.074L151.576 240.552C166.904 240.488 179.31 228.044 179.31 212.702H178.832H178.354C178.354 227.518 166.374 239.534 151.572 239.596L151.574 240.074ZM178.832 212.702H179.31C179.31 197.359 166.904 184.915 151.576 184.851L151.574 185.329L151.572 185.806C166.374 185.868 178.354 197.886 178.354 212.702H178.832ZM151.574 185.329H152.052V185.328H151.574H151.096V185.329H151.574ZM151.574 185.328V184.85H88.6025V185.328V185.805H151.574V185.328ZM88.6094 61.9771L88.5993 61.4994C73.4921 61.8177 61.3445 74.1827 61.3445 89.3892H61.8223H62.3001C62.3001 74.7023 74.0323 62.7621 88.6194 62.4547L88.6094 61.9771ZM61.8223 89.3892L61.3445 89.3892C61.3448 104.595 73.4923 116.96 88.5993 117.278L88.6094 116.8L88.6194 116.323C74.0325 116.015 62.3004 104.076 62.3001 89.3891L61.8223 89.3892ZM88.6094 116.8H88.1316V116.808H88.6094H89.0872V116.8H88.6094ZM88.6094 116.808V117.286H151.582V116.808V116.33H88.6094V116.808ZM151.582 116.808H152.06V116.806H151.582H151.104V116.808H151.582ZM151.582 116.806L151.584 117.284C166.91 117.218 179.313 104.754 179.314 89.3892L178.836 89.3892L178.358 89.3891C178.358 104.229 166.379 116.264 151.58 116.328L151.582 116.806ZM178.836 89.3892H179.314C179.314 74.0239 166.91 61.5588 151.584 61.4924L151.582 61.9702L151.58 62.448C166.379 62.5121 178.358 74.5488 178.358 89.3892H178.836ZM151.582 61.9702H152.06V61.9692H151.582H151.104V61.9702H151.582ZM151.582 61.9692V61.4915H88.6094V61.9692V62.447H151.582V61.9692ZM88.6094 61.9692H88.1316V61.9771H88.6094H89.0872V61.9692H88.6094Z" fill="#09A3B7" mask="url(#path-1-outside-1_288_4796)"/>
</g>
</svg>
