<svg width="38" height="46" viewBox="0 0 38 46" fill="none" xmlns="http://www.w3.org/2000/svg">
<path d="M4.78418 0.424164C4.78418 0.424164 8.24076 0.143995 9.58301 4.47787C10.9252 8.81206 14.3125 8.57748 14.3125 8.57748C14.3264 8.57809 17.767 8.72378 19.1064 4.47787C20.281 0.755507 23.0248 0.443956 23.6924 0.424163L33.3691 0.424162C33.4009 0.424457 37.5555 0.470688 37.5557 4.50033L37.5557 13.7113C37.5557 13.7113 37.7045 17.0104 33.3584 18.2806C32.4442 18.548 31.73 18.9086 31.1719 19.3109C28.8617 20.9763 28.9051 24.8447 31.249 26.4622C31.7963 26.8399 32.487 27.1974 33.3584 27.5033C37.8782 29.0902 37.5583 32.1092 37.5557 32.1331C37.5557 33.8758 36.3262 35.0189 36.3262 35.0189L26.7949 44.2328C25.6052 45.4346 23.8568 45.4214 23.8408 45.4212L14.3125 45.4212C12.4622 45.4212 11.3621 44.2368 11.3584 44.2328C9.04345 41.6443 9.32693 38.1085 4.78906 36.7249C0.274176 35.3489 0.609818 32.1659 0.613283 32.1341L0.6084 22.9232C0.6084 22.9232 0.513469 19.8276 4.42969 18.4408L5.21289 18.183C9.12564 16.7968 8.97559 13.7113 8.97559 13.7113C8.97833 13.6672 9.16981 10.3433 4.78906 9.12045C0.3793 7.88934 0.597656 4.50034 0.597656 4.50034C0.826194 0.401018 4.76877 0.424058 4.78418 0.424164ZM14.1309 28.0218L14.1309 28.0238C11.8606 28.0788 10.0372 29.8886 10.0371 32.1136C10.0373 34.3386 11.8606 36.1474 14.1309 36.2025L14.1309 36.2054L23.793 36.2054L23.793 36.2044C26.1119 36.2038 27.9912 34.373 27.9912 32.1136C27.9911 29.8543 26.1119 28.0225 23.793 28.0218L14.1309 28.0218ZM14.1309 9.55893C11.8606 9.61412 10.0372 11.427 10.0371 13.6556C10.0372 15.8842 11.8606 17.6961 14.1309 17.7513L14.1309 17.7542L23.793 17.7542L23.793 17.7533C26.1119 17.7526 27.9911 15.9186 27.9912 13.6556C27.9911 11.3926 26.1119 9.55762 23.793 9.55698L14.1309 9.55698L14.1309 9.55893Z" fill="#DD4748"/>
</svg>
