<svg width="38" height="46" viewBox="0 0 38 46" fill="none" xmlns="http://www.w3.org/2000/svg">
<path d="M4.69238 0.441406C4.69238 0.441406 8.14896 0.161238 9.49121 4.49512C10.8334 8.8293 14.2207 8.59473 14.2207 8.59473C14.2346 8.59534 17.6752 8.74102 19.0146 4.49512C20.1892 0.772749 22.933 0.461198 23.6006 0.441405L33.2773 0.441404C33.3091 0.441699 37.4637 0.487931 37.4639 4.51758L37.4639 13.7285C37.4639 13.7285 37.6127 17.0276 33.2666 18.2978C32.3524 18.5652 31.6382 18.9258 31.0801 19.3281C28.7699 20.9935 28.8133 24.8619 31.1572 26.4795C31.7045 26.8572 32.3952 27.2147 33.2666 27.5205C37.7864 29.1074 37.4665 32.1264 37.4639 32.1504C37.4639 33.893 36.2344 35.0361 36.2344 35.0361L26.7031 44.25C25.5134 45.4519 23.765 45.4386 23.749 45.4385L14.2207 45.4385C12.3704 45.4385 11.2703 44.254 11.2666 44.25C8.95165 41.6616 9.23514 38.1257 4.69727 36.7422C0.182379 35.3661 0.518021 32.1831 0.521486 32.1514L0.516603 22.9404C0.516603 22.9404 0.421672 19.8448 4.33789 18.458L5.12109 18.2002C9.03384 16.814 8.88379 13.7285 8.88379 13.7285C8.88653 13.6844 9.07801 10.3606 4.69727 9.1377C0.287503 7.90658 0.50586 4.51758 0.50586 4.51758C0.734397 0.41826 4.67698 0.441301 4.69238 0.441406ZM14.0391 28.0391L14.0391 28.041C11.7688 28.0961 9.94542 29.9059 9.94531 32.1309C9.94549 34.3558 11.7688 36.1647 14.0391 36.2197L14.0391 36.2227L23.7012 36.2227L23.7012 36.2217C26.0201 36.221 27.8994 34.3902 27.8994 32.1309C27.8993 29.8716 26.0201 28.0397 23.7012 28.0391L14.0391 28.0391ZM14.0391 9.57617C11.7688 9.63137 9.94542 11.4442 9.94531 13.6729C9.94542 15.9015 11.7688 17.7133 14.0391 17.7686L14.0391 17.7715L23.7012 17.7715L23.7012 17.7705C26.0201 17.7699 27.8993 15.9359 27.8994 13.6729C27.8993 11.4098 26.0201 9.57486 23.7012 9.57422L14.0391 9.57422L14.0391 9.57617Z" fill="#DD4748"/>
</svg>
