<svg width="324" height="34" viewBox="0 0 324 34" fill="none" xmlns="http://www.w3.org/2000/svg">
<path d="M22.9334 10.2114H17.6451C17.5485 9.52724 17.3513 8.91952 17.0534 8.38827C16.7556 7.84897 16.3733 7.39017 15.9064 7.01185C15.4396 6.63354 14.9003 6.34376 14.2885 6.14253C13.6848 5.9413 13.0288 5.84069 12.3205 5.84069C11.0407 5.84069 9.92584 6.15863 8.97603 6.79452C8.02622 7.42236 7.28971 8.33998 6.76651 9.54736C6.24331 10.7467 5.98171 12.2036 5.98171 13.9181C5.98171 15.6809 6.24331 17.1619 6.76651 18.3613C7.29776 19.5606 8.03829 20.4662 8.9881 21.0779C9.93791 21.6896 11.0366 21.9955 12.2843 21.9955C12.9846 21.9955 13.6325 21.903 14.2282 21.7178C14.8319 21.5327 15.3671 21.263 15.834 20.9089C16.3008 20.5467 16.6872 20.108 16.9931 19.5928C17.307 19.0777 17.5243 18.4901 17.6451 17.83L22.9334 17.8542C22.7966 18.9891 22.4545 20.0838 21.9071 21.1383C21.3678 22.1847 20.6394 23.1224 19.7218 23.9515C18.8122 24.7725 17.7256 25.4245 16.4618 25.9074C15.2061 26.3824 13.7855 26.6198 12.1998 26.6198C9.99426 26.6198 8.02219 26.1208 6.28356 25.1226C4.55297 24.1245 3.1846 22.6797 2.17844 20.7881C1.18034 18.8966 0.681286 16.6065 0.681286 13.9181C0.681286 11.2216 1.18839 8.92757 2.20259 7.036C3.2168 5.14443 4.59322 3.70361 6.33185 2.71356C8.07049 1.71545 10.0265 1.2164 12.1998 1.2164C13.6325 1.2164 14.9606 1.41763 16.1841 1.82009C17.4157 2.22255 18.5063 2.81015 19.4561 3.58287C20.406 4.34755 21.1787 5.28529 21.7743 6.39608C22.378 7.50688 22.7644 8.77866 22.9334 10.2114ZM34.965 26.644C33.0895 26.644 31.4676 26.2455 30.0993 25.4486C28.7389 24.6437 27.6885 23.5249 26.948 22.0921C26.2074 20.6513 25.8372 18.9811 25.8372 17.0815C25.8372 15.1657 26.2074 13.4915 26.948 12.0587C27.6885 10.6179 28.7389 9.49907 30.0993 8.70219C31.4676 7.89727 33.0895 7.49481 34.965 7.49481C36.8405 7.49481 38.4584 7.89727 39.8187 8.70219C41.1871 9.49907 42.2415 10.6179 42.9821 12.0587C43.7226 13.4915 44.0929 15.1657 44.0929 17.0815C44.0929 18.9811 43.7226 20.6513 42.9821 22.0921C42.2415 23.5249 41.1871 24.6437 39.8187 25.4486C38.4584 26.2455 36.8405 26.644 34.965 26.644ZM34.9892 22.6596C35.8424 22.6596 36.5547 22.4181 37.1262 21.9351C37.6977 21.4441 38.1284 20.7761 38.4181 19.9309C38.716 19.0857 38.8649 18.1238 38.8649 17.0452C38.8649 15.9666 38.716 15.0047 38.4181 14.1596C38.1284 13.3144 37.6977 12.6463 37.1262 12.1553C36.5547 11.6643 35.8424 11.4188 34.9892 11.4188C34.1279 11.4188 33.4035 11.6643 32.8159 12.1553C32.2363 12.6463 31.7976 13.3144 31.4998 14.1596C31.21 15.0047 31.0652 15.9666 31.0652 17.0452C31.0652 18.1238 31.21 19.0857 31.4998 19.9309C31.7976 20.7761 32.2363 21.4441 32.8159 21.9351C33.4035 22.4181 34.1279 22.6596 34.9892 22.6596ZM47.4373 26.2817V7.73628H52.3393V11.0083H52.5566C52.943 9.92165 53.5869 9.06441 54.4885 8.43657C55.39 7.80873 56.4686 7.49481 57.7243 7.49481C58.996 7.49481 60.0787 7.81275 60.9721 8.44864C61.8656 9.07648 62.4612 9.9297 62.7591 11.0083H62.9522C63.3306 9.9458 64.0147 9.09661 65.0048 8.46071C66.0029 7.81678 67.1821 7.49481 68.5424 7.49481C70.273 7.49481 71.6776 8.04618 72.7562 9.14893C73.8429 10.2436 74.3862 11.7971 74.3862 13.8094V26.2817H69.2548V14.8236C69.2548 13.7933 68.9811 13.0206 68.4338 12.5055C67.8864 11.9903 67.2022 11.7327 66.3812 11.7327C65.4475 11.7327 64.719 12.0306 64.1958 12.6262C63.6726 13.2138 63.411 13.9905 63.411 14.9565V26.2817H58.4245V14.715C58.4245 13.8054 58.1629 13.081 57.6397 12.5417C57.1246 12.0024 56.4444 11.7327 55.5993 11.7327C55.0278 11.7327 54.5126 11.8776 54.0538 12.1674C53.603 12.4491 53.2449 12.8476 52.9792 13.3627C52.7136 13.8698 52.5808 14.4655 52.5808 15.1496V26.2817H47.4373ZM78.449 26.2817V7.73628H83.5925V26.2817H78.449ZM81.0328 5.34566C80.2682 5.34566 79.6122 5.09211 79.0648 4.585C78.5255 4.06985 78.2559 3.45409 78.2559 2.7377C78.2559 2.02937 78.5255 1.42165 79.0648 0.914551C79.6122 0.399398 80.2682 0.141822 81.0328 0.141822C81.7975 0.141822 82.4495 0.399398 82.9888 0.914551C83.5362 1.42165 83.8098 2.02937 83.8098 2.7377C83.8098 3.45409 83.5362 4.06985 82.9888 4.585C82.4495 5.09211 81.7975 5.34566 81.0328 5.34566ZM92.8562 15.5601V26.2817H87.7127V7.73628H92.6147V11.0083H92.832C93.2425 9.9297 93.9308 9.07648 94.8967 8.44864C95.8626 7.81275 97.0337 7.49481 98.4102 7.49481C99.698 7.49481 100.821 7.77653 101.779 8.33998C102.737 8.90342 103.481 9.70835 104.012 10.7547C104.544 11.7931 104.809 13.0327 104.809 14.4735V26.2817H99.6658V15.3911C99.6739 14.2562 99.3841 13.3708 98.7965 12.7349C98.2089 12.0909 97.4 11.769 96.3697 11.769C95.6774 11.769 95.0657 11.9179 94.5344 12.2157C94.0112 12.5135 93.6007 12.9482 93.3029 13.5197C93.0131 14.0831 92.8642 14.7633 92.8562 15.5601ZM117.218 33.6226C115.552 33.6226 114.123 33.3932 112.932 32.9344C111.749 32.4837 110.807 31.8679 110.107 31.0871C109.406 30.3064 108.952 29.429 108.742 28.455L113.499 27.8151C113.644 28.1854 113.874 28.5315 114.188 28.8535C114.502 29.1754 114.916 29.433 115.431 29.6262C115.954 29.8274 116.59 29.928 117.339 29.928C118.458 29.928 119.379 29.6544 120.104 29.107C120.836 28.5677 121.203 27.6622 121.203 26.3904V22.9976H120.985C120.76 23.5128 120.422 23.9998 119.971 24.4586C119.52 24.9174 118.941 25.2917 118.232 25.5815C117.524 25.8712 116.679 26.0161 115.697 26.0161C114.304 26.0161 113.037 25.6941 111.894 25.0502C110.759 24.3982 109.853 23.4041 109.177 22.068C108.509 20.7237 108.175 19.0253 108.175 16.9728C108.175 14.8719 108.517 13.1172 109.201 11.7086C109.885 10.3 110.795 9.24552 111.93 8.54523C113.073 7.84495 114.325 7.49481 115.685 7.49481C116.723 7.49481 117.593 7.67189 118.293 8.02606C118.993 8.37217 119.557 8.80683 119.983 9.33003C120.418 9.84518 120.752 10.3523 120.985 10.8513H121.178V7.73628H126.286V26.4628C126.286 28.0405 125.899 29.3606 125.127 30.4231C124.354 31.4856 123.283 32.2824 121.915 32.8137C120.555 33.353 118.989 33.6226 117.218 33.6226ZM117.327 22.1525C118.156 22.1525 118.856 21.9472 119.428 21.5367C120.007 21.1181 120.45 20.5225 120.756 19.7498C121.07 18.969 121.227 18.0353 121.227 16.9486C121.227 15.862 121.074 14.9202 120.768 14.1234C120.462 13.3184 120.019 12.6946 119.44 12.2519C118.86 11.8092 118.156 11.5878 117.327 11.5878C116.482 11.5878 115.769 11.8172 115.19 12.2761C114.61 12.7268 114.172 13.3547 113.874 14.1596C113.576 14.9645 113.427 15.8942 113.427 16.9486C113.427 18.0192 113.576 18.9449 113.874 19.7256C114.18 20.4984 114.618 21.098 115.19 21.5246C115.769 21.9432 116.482 22.1525 117.327 22.1525ZM151.759 8.66597C151.662 7.69201 151.247 6.93538 150.515 6.39608C149.782 5.85678 148.788 5.58713 147.533 5.58713C146.679 5.58713 145.959 5.70787 145.371 5.94935C144.784 6.18278 144.333 6.50877 144.019 6.92733C143.713 7.3459 143.56 7.8208 143.56 8.35205C143.544 8.79476 143.637 9.18112 143.838 9.51114C144.047 9.84116 144.333 10.1269 144.695 10.3684C145.058 10.6018 145.476 10.8071 145.951 10.9842C146.426 11.1532 146.933 11.2981 147.472 11.4188L149.694 11.9501C150.772 12.1915 151.763 12.5135 152.664 12.916C153.566 13.3184 154.346 13.8135 155.006 14.4011C155.666 14.9887 156.178 15.6809 156.54 16.4778C156.91 17.2746 157.099 18.1882 157.107 19.2185C157.099 20.7318 156.713 22.0438 155.948 23.1546C155.192 24.2574 154.097 25.1146 152.664 25.7263C151.239 26.33 149.521 26.6319 147.509 26.6319C145.512 26.6319 143.774 26.326 142.293 25.7143C140.82 25.1025 139.669 24.197 138.839 22.9976C138.018 21.7903 137.588 20.2971 137.548 18.5182H142.607C142.663 19.3473 142.9 20.0396 143.319 20.5949C143.746 21.1423 144.313 21.5568 145.021 21.8386C145.738 22.1122 146.547 22.2491 147.448 22.2491C148.334 22.2491 149.102 22.1203 149.754 21.8627C150.414 21.6051 150.925 21.2469 151.288 20.7881C151.65 20.3293 151.831 19.8021 151.831 19.2065C151.831 18.6511 151.666 18.1842 151.336 17.8059C151.014 17.4276 150.539 17.1056 149.911 16.84C149.291 16.5744 148.531 16.3329 147.629 16.1155L144.937 15.4394C142.852 14.9323 141.206 14.1395 139.999 13.0609C138.791 11.9823 138.192 10.5294 138.2 8.70219C138.192 7.20503 138.59 5.89703 139.395 4.77819C140.208 3.65934 141.323 2.786 142.739 2.15816C144.156 1.53032 145.766 1.2164 147.569 1.2164C149.404 1.2164 151.006 1.53032 152.374 2.15816C153.751 2.786 154.821 3.65934 155.586 4.77819C156.351 5.89703 156.745 7.19296 156.769 8.66597H151.759ZM168.906 26.644C167.031 26.644 165.409 26.2455 164.041 25.4486C162.68 24.6437 161.63 23.5249 160.889 22.0921C160.149 20.6513 159.779 18.9811 159.779 17.0815C159.779 15.1657 160.149 13.4915 160.889 12.0587C161.63 10.6179 162.68 9.49907 164.041 8.70219C165.409 7.89727 167.031 7.49481 168.906 7.49481C170.782 7.49481 172.4 7.89727 173.76 8.70219C175.128 9.49907 176.183 10.6179 176.923 12.0587C177.664 13.4915 178.034 15.1657 178.034 17.0815C178.034 18.9811 177.664 20.6513 176.923 22.0921C176.183 23.5249 175.128 24.6437 173.76 25.4486C172.4 26.2455 170.782 26.644 168.906 26.644ZM168.931 22.6596C169.784 22.6596 170.496 22.4181 171.068 21.9351C171.639 21.4441 172.07 20.7761 172.36 19.9309C172.657 19.0857 172.806 18.1238 172.806 17.0452C172.806 15.9666 172.657 15.0047 172.36 14.1596C172.07 13.3144 171.639 12.6463 171.068 12.1553C170.496 11.6643 169.784 11.4188 168.931 11.4188C168.069 11.4188 167.345 11.6643 166.757 12.1553C166.178 12.6463 165.739 13.3144 165.441 14.1596C165.151 15.0047 165.007 15.9666 165.007 17.0452C165.007 18.1238 165.151 19.0857 165.441 19.9309C165.739 20.7761 166.178 21.4441 166.757 21.9351C167.345 22.4181 168.069 22.6596 168.931 22.6596ZM189.758 26.644C187.883 26.644 186.261 26.2455 184.892 25.4486C183.532 24.6437 182.481 23.5249 181.741 22.0921C181 20.6513 180.63 18.9811 180.63 17.0815C180.63 15.1657 181 13.4915 181.741 12.0587C182.481 10.6179 183.532 9.49907 184.892 8.70219C186.261 7.89727 187.883 7.49481 189.758 7.49481C191.633 7.49481 193.251 7.89727 194.612 8.70219C195.98 9.49907 197.035 10.6179 197.775 12.0587C198.516 13.4915 198.886 15.1657 198.886 17.0815C198.886 18.9811 198.516 20.6513 197.775 22.0921C197.035 23.5249 195.98 24.6437 194.612 25.4486C193.251 26.2455 191.633 26.644 189.758 26.644ZM189.782 22.6596C190.635 22.6596 191.348 22.4181 191.919 21.9351C192.491 21.4441 192.921 20.7761 193.211 19.9309C193.509 19.0857 193.658 18.1238 193.658 17.0452C193.658 15.9666 193.509 15.0047 193.211 14.1596C192.921 13.3144 192.491 12.6463 191.919 12.1553C191.348 11.6643 190.635 11.4188 189.782 11.4188C188.921 11.4188 188.196 11.6643 187.609 12.1553C187.029 12.6463 186.591 13.3144 186.293 14.1596C186.003 15.0047 185.858 15.9666 185.858 17.0452C185.858 18.1238 186.003 19.0857 186.293 19.9309C186.591 20.7761 187.029 21.4441 187.609 21.9351C188.196 22.4181 188.921 22.6596 189.782 22.6596ZM207.374 15.5601V26.2817H202.23V7.73628H207.132V11.0083H207.35C207.76 9.9297 208.448 9.07648 209.414 8.44864C210.38 7.81275 211.551 7.49481 212.928 7.49481C214.216 7.49481 215.338 7.77653 216.296 8.33998C217.254 8.90342 217.999 9.70835 218.53 10.7547C219.061 11.7931 219.327 13.0327 219.327 14.4735V26.2817H214.183V15.3911C214.191 14.2562 213.902 13.3708 213.314 12.7349C212.727 12.0909 211.918 11.769 210.887 11.769C210.195 11.769 209.583 11.9179 209.052 12.2157C208.529 12.5135 208.118 12.9482 207.82 13.5197C207.531 14.0831 207.382 14.7633 207.374 15.5601ZM241.959 1.55446V26.2817H236.731V6.51682H236.586L230.924 10.0665V5.43018L237.045 1.55446H241.959ZM257.532 26.8251C255.455 26.817 253.668 26.3059 252.171 25.2917C250.682 24.2775 249.535 22.8085 248.73 20.8847C247.933 18.961 247.538 16.6468 247.547 13.9422C247.547 11.2458 247.945 8.94769 248.742 7.04807C249.547 5.14845 250.694 3.70361 252.183 2.71356C253.68 1.71545 255.463 1.2164 257.532 1.2164C259.6 1.2164 261.379 1.71545 262.868 2.71356C264.365 3.71166 265.516 5.16053 266.321 7.06015C267.126 8.95172 267.525 11.2458 267.517 13.9422C267.517 16.6548 267.114 18.973 266.309 20.8968C265.512 22.8206 264.369 24.2896 262.88 25.3038C261.391 26.318 259.608 26.8251 257.532 26.8251ZM257.532 22.4905C258.948 22.4905 260.079 21.7782 260.924 20.3535C261.77 18.9288 262.188 16.7917 262.18 13.9422C262.18 12.0668 261.987 10.5052 261.6 9.25759C261.222 8.00996 260.683 7.07222 259.983 6.44438C259.29 5.81654 258.473 5.50262 257.532 5.50262C256.123 5.50262 254.996 6.20693 254.151 7.61554C253.306 9.02416 252.879 11.1331 252.871 13.9422C252.871 15.8419 253.06 17.4276 253.439 18.6994C253.825 19.9631 254.368 20.9129 255.069 21.5488C255.769 22.1766 256.59 22.4905 257.532 22.4905ZM282.063 0.395373L274.094 30.0005H269.663L277.632 0.395373H282.063ZM284.493 26.2817V22.5147L293.294 14.3648C294.043 13.6404 294.671 12.9884 295.178 12.4089C295.693 11.8293 296.083 11.2619 296.349 10.7065C296.615 10.143 296.748 9.53529 296.748 8.8833C296.748 8.15887 296.583 7.53505 296.252 7.01185C295.922 6.4806 295.472 6.07411 294.9 5.79239C294.329 5.50262 293.681 5.35773 292.956 5.35773C292.2 5.35773 291.54 5.51067 290.976 5.81654C290.413 6.12241 289.978 6.56109 289.672 7.13259C289.366 7.70409 289.213 8.38425 289.213 9.17307H284.251C284.251 7.55518 284.617 6.15058 285.35 4.95929C286.082 3.76801 287.109 2.84637 288.429 2.19438C289.749 1.54239 291.27 1.2164 292.993 1.2164C294.763 1.2164 296.305 1.53032 297.617 2.15816C298.937 2.77795 299.963 3.63922 300.696 4.74196C301.428 5.84471 301.794 7.10844 301.794 8.53316C301.794 9.46687 301.609 10.3885 301.239 11.2981C300.877 12.2076 300.229 13.2178 299.295 14.3286C298.361 15.4314 297.045 16.7555 295.347 18.3009L291.737 21.8386V22.0076H302.12V26.2817H284.493ZM305.909 26.2817V22.5147L314.71 14.3648C315.459 13.6404 316.087 12.9884 316.594 12.4089C317.109 11.8293 317.499 11.2619 317.765 10.7065C318.031 10.143 318.164 9.53529 318.164 8.8833C318.164 8.15887 317.999 7.53505 317.669 7.01185C317.338 6.4806 316.888 6.07411 316.316 5.79239C315.745 5.50262 315.097 5.35773 314.372 5.35773C313.616 5.35773 312.956 5.51067 312.392 5.81654C311.829 6.12241 311.394 6.56109 311.088 7.13259C310.782 7.70409 310.629 8.38425 310.629 9.17307H305.667C305.667 7.55518 306.033 6.15058 306.766 4.95929C307.498 3.76801 308.525 2.84637 309.845 2.19438C311.165 1.54239 312.686 1.2164 314.409 1.2164C316.179 1.2164 317.721 1.53032 319.033 2.15816C320.353 2.77795 321.379 3.63922 322.112 4.74196C322.844 5.84471 323.21 7.10844 323.21 8.53316C323.21 9.46687 323.025 10.3885 322.655 11.2981C322.293 12.2076 321.645 13.2178 320.711 14.3286C319.777 15.4314 318.461 16.7555 316.763 18.3009L313.153 21.8386V22.0076H323.536V26.2817H305.909Z" fill="#DD4748"/>
</svg>
